<svg xmlns="http://www.w3.org/2000/svg" width="20" height="20" viewBox="0 0 20 20">
  <g id="Group_364701" data-name="Group 364701" transform="translate(-14 -23)">
    <rect id="Rectangle_113265" data-name="Rectangle 113265" width="20" height="20" transform="translate(14 23)" fill="#fff" opacity="0"/>
    <path id="icons8-receive_cash" d="M12.74,3a2.37,2.37,0,0,0-2.178,1.523h-.006A2.8,2.8,0,0,0,7.825,7.377a2.8,2.8,0,0,0,2.731,2.855,2.777,2.777,0,0,0,2.684-2.341,2.462,2.462,0,0,0,1.867-2.417A2.431,2.431,0,0,0,12.74,3Zm0,1.142a1.3,1.3,0,0,1,1.274,1.332,1.32,1.32,0,0,1-.806,1.238A2.845,2.845,0,0,0,11.66,4.77,1.256,1.256,0,0,1,12.74,4.142ZM10.555,5.665a1.668,1.668,0,0,1,1.638,1.713,1.64,1.64,0,1,1-3.277,0A1.668,1.668,0,0,1,10.555,5.665Zm5.867,4.575a1.9,1.9,0,0,0-1.139.44c-.369.287-1.48,1.154-2.442,1.9a1.654,1.654,0,0,0-1.557-1.21h-1.6A7.9,7.9,0,0,1,7.774,11.2a5.811,5.811,0,0,0-1.468-.2,4.22,4.22,0,0,0-3.179,1.824,8.68,8.68,0,0,0-1.077,1.749.582.582,0,0,0,.271.756.537.537,0,0,0,.724-.283,7.539,7.539,0,0,1,.922-1.49,3.218,3.218,0,0,1,2.341-1.414,4.632,4.632,0,0,1,1.242.178,9.22,9.22,0,0,0,2.138.2h1.6a.551.551,0,0,1,.546.571.575.575,0,0,1-.193.436l-.015.012-.031.028a.534.534,0,0,1-.307.1H8.735a.572.572,0,0,0,0,1.142h2.549a1.574,1.574,0,0,0,.927-.306.544.544,0,0,0,.065-.044s3.113-2.431,3.659-2.854h0a.863.863,0,0,1,.5-.214.409.409,0,0,1,.335.16.579.579,0,0,1,0,.8c-1.95,1.714-3.176,2.856-3.986,3.525s-1.164.839-1.5.839c-1.33,0-2.8-.381-4.369-.381a2.325,2.325,0,0,0-1.893.99,3.042,3.042,0,0,0-.457.966.589.589,0,0,0,.144.559.53.53,0,0,0,.537.14.561.561,0,0,0,.378-.422A1.814,1.814,0,0,1,5.895,18a1.142,1.142,0,0,1,1.02-.533c1.386,0,2.853.381,4.369.381a3.527,3.527,0,0,0,2.178-1.085c.862-.712,2.073-1.842,4.011-3.546a.552.552,0,0,0,.067-.058s0-.006.006-.009h0l.019-.021a.576.576,0,0,0,.12-.2,1.758,1.758,0,0,0-.146-2.191A1.547,1.547,0,0,0,16.422,10.24Z" transform="translate(14 22)" fill="#9ba4b3"/>
  </g>
</svg>
