<svg xmlns="http://www.w3.org/2000/svg" width="20" height="20" viewBox="0 0 20 20">
  <g id="Group_364702" data-name="Group 364702" transform="translate(-14 -23)">
    <rect id="Rectangle_113265" data-name="Rectangle 113265" width="20" height="20" transform="translate(14 23)" fill="#9ba4b3" opacity="0"/>
    <path id="icons8-paid_search" d="M7.316,6A2.338,2.338,0,0,0,5.1,7.718s0,0,0,0a2.544,2.544,0,0,0-.092.476s0,0,0,0C5,8.277,5,8.36,5,8.444V19.556A2.386,2.386,0,0,0,7.316,22H18.684a2.128,2.128,0,0,0,.22-.012l-1.252-1.321H7.316a1.084,1.084,0,0,1-1.053-1.111V10.444H19.737v8.023l1.252,1.321c.007-.076.011-.154.011-.233V8.444c0-.085,0-.168-.012-.25a2.544,2.544,0,0,0-.092-.476s0,0,0,0A2.338,2.338,0,0,0,18.684,6Zm1.9,5.778a.65.65,0,0,0-.632.667v.3a1.9,1.9,0,0,0-1.36,1.814,1.843,1.843,0,0,0,1.789,1.889h.518a.556.556,0,0,1,0,1.111h-.72a.543.543,0,0,1-.5-.3.617.617,0,0,0-.848-.3.685.685,0,0,0-.282.895,1.8,1.8,0,0,0,1.407,1.017v.24a.633.633,0,1,0,1.263,0v-.256A1.863,1.863,0,0,0,11.316,17a1.843,1.843,0,0,0-1.789-1.889H9.008a.542.542,0,0,1-.526-.556A.576.576,0,0,1,9.049,14h.357a.479.479,0,0,1,.5.3.617.617,0,0,0,.848.3.685.685,0,0,0,.283-.895,1.716,1.716,0,0,0-1.2-.984v-.273A.65.65,0,0,0,9.211,11.778Zm6.736,1.778a3.116,3.116,0,0,0,0,6.222,2.757,2.757,0,0,0,1.549-.534l2,2.116a.608.608,0,0,0,.893,0,.693.693,0,0,0,0-.943L18.389,18.3a3.131,3.131,0,0,0,.506-1.635A3.042,3.042,0,0,0,15.947,13.556Zm0,1.333a1.78,1.78,0,1,1-1.684,1.778A1.723,1.723,0,0,1,15.947,14.889Z" transform="translate(11.001 19)" fill="#9ba4b3"/>
  </g>
</svg>
