<svg xmlns="http://www.w3.org/2000/svg" width="20" height="20" viewBox="0 0 20 20">
  <g id="Group_364700" data-name="Group 364700" transform="translate(-14 -23)">
    <rect id="Rectangle_113265" data-name="Rectangle 113265" width="20" height="20" transform="translate(14 23)" fill="#9ba4b3" opacity="0"/>
    <path id="icons8-bill" d="M8.643,5A.632.632,0,0,0,8,5.631V18.684A2.325,2.325,0,0,0,10.316,21h8.842a2.325,2.325,0,0,0,2.316-2.316V5.631a.632.632,0,0,0-.888-.577l-1.651.734-1.858-.743a.632.632,0,0,0-.469,0l-1.871.748-1.871-.748a.632.632,0,0,0-.469,0l-1.858.743L8.888,5.054A.632.632,0,0,0,8.643,5Zm3.988,1.312L14.5,7.06a.632.632,0,0,0,.469,0l1.871-.748,1.871.748a.632.632,0,0,0,.491-.009L20.21,6.6v12.08a1.043,1.043,0,0,1-1.053,1.053H10.316a1.043,1.043,0,0,1-1.053-1.053V6.6l1.007.447a.632.632,0,0,0,.491.009Zm-1.474,3.741a.632.632,0,1,0,0,1.263h7.158a.632.632,0,1,0,0-1.263Zm0,3.789a.632.632,0,1,0,0,1.263h3.789a.632.632,0,1,0,0-1.263Zm6.316,0a.632.632,0,1,0,0,1.263h.842a.632.632,0,1,0,0-1.263Zm-6.316,2.526a.632.632,0,1,0,0,1.263h3.789a.632.632,0,1,0,0-1.263Zm6.316,0a.632.632,0,1,0,0,1.263h.842a.632.632,0,1,0,0-1.263Z" transform="translate(9 20)" fill="#9ba4b3"/>
  </g>
</svg>
