<svg xmlns="http://www.w3.org/2000/svg" width="20" height="20" viewBox="0 0 20 20">
  <g id="Group_364702" data-name="Group 364702" transform="translate(-14 -23)">
    <rect id="Rectangle_113265" data-name="Rectangle 113265" width="20" height="20" transform="translate(14 23)" fill="#9ba4b3" opacity="0"/>
    <path id="icons8-service_tips" d="M12.293,5a.585.585,0,0,0-.3.084l-1.633.98L8.91,5.1A.586.586,0,0,0,8,5.585V19.244a.586.586,0,0,0,.91.487l1.448-.966,1.633.98a.585.585,0,0,0,.6,0l1.381-.829a5.029,5.029,0,0,1-.393-1.129l-1.289.774-1.65-.99a.586.586,0,0,0-.626.014l-.846.564V6.679l.846.564a.585.585,0,0,0,.626.014l1.65-.99,1.65.99a.585.585,0,0,0,.6,0l1.65-.99,1.65.99a.585.585,0,0,0,.626-.014l.846-.564V11.7a5.045,5.045,0,0,1,1.171.324V5.585a.586.586,0,0,0-.91-.487l-1.448.966L16.5,5.084a.585.585,0,0,0-.6,0l-1.65.989-1.65-.989A.585.585,0,0,0,12.293,5ZM10.927,9.293a.585.585,0,1,0,0,1.171h6.634a.585.585,0,1,0,0-1.171Zm0,3.122a.585.585,0,1,0,0,1.171h3.512a.585.585,0,1,0,0-1.171Zm7.61,0a4.293,4.293,0,1,0,4.293,4.293A4.293,4.293,0,0,0,18.537,12.415Zm0,1.171a.39.39,0,0,1,.39.39v.4a1.443,1.443,0,0,1,1.108.563.39.39,0,0,1-.655.424.7.7,0,0,0-.536-.212h-.6a.585.585,0,1,0,0,1.171h.683a1.366,1.366,0,1,1,0,2.732v.39a.39.39,0,0,1-.78,0v-.392a1.768,1.768,0,0,1-1.252-.5.39.39,0,1,1,.552-.551.978.978,0,0,0,.714.275h.766a.585.585,0,1,0,0-1.171h-.683a1.363,1.363,0,0,1-.1-2.722v-.4A.39.39,0,0,1,18.537,13.585Zm-7.61,1.171a.585.585,0,1,0,0,1.171h1.951a.585.585,0,1,0,0-1.171Z" transform="translate(8.999 20)" fill="#9ba4b3"/>
  </g>
</svg>
