<svg xmlns="http://www.w3.org/2000/svg" width="20" height="20" viewBox="0 0 20 20">
  <g id="Group_364699" data-name="Group 364699" transform="translate(-14 -23)">
    <rect id="Rectangle_113265" data-name="Rectangle 113265" width="20" height="20" transform="translate(14 23)" fill="#fff" opacity="0"/>
    <path id="icons8-inquiry" d="M17.524,2a2.5,2.5,0,0,0-2.476,2.476.571.571,0,1,0,1.143,0,1.333,1.333,0,1,1,2.667,0,1.153,1.153,0,0,1-.247.754,4.494,4.494,0,0,1-.7.681,3.091,3.091,0,0,0-1.343,2.375.571.571,0,1,0,1.143,0c0-.724.375-1.021.943-1.506a5.156,5.156,0,0,0,.876-.876A2.409,2.409,0,0,0,20,4.476,2.5,2.5,0,0,0,17.524,2ZM10.1,2.762a3.81,3.81,0,1,0,3.81,3.81A3.818,3.818,0,0,0,10.1,2.762Zm0,1.143A2.667,2.667,0,1,1,7.429,6.571,2.658,2.658,0,0,1,10.1,3.9Zm7.048,5.714a.952.952,0,1,0,.952.952A.952.952,0,0,0,17.143,9.619ZM5.516,11.9A1.524,1.524,0,0,0,4,13.42V14a3.55,3.55,0,0,0,2.022,3.071A8.574,8.574,0,0,0,10.1,18a8.574,8.574,0,0,0,4.074-.929,3.682,3.682,0,0,0,1.931-2.5h.092V13.42A1.525,1.525,0,0,0,14.675,11.9Zm0,1.143h9.159a.365.365,0,0,1,.374.373v.008h0V14a2.321,2.321,0,0,1-1.431,2.071,7.594,7.594,0,0,1-3.522.786,7.594,7.594,0,0,1-3.522-.786A2.321,2.321,0,0,1,5.143,14v-.58A.364.364,0,0,1,5.516,13.048Z" transform="translate(12 23)" fill="#fff"/>
  </g>
</svg>
