<svg xmlns="http://www.w3.org/2000/svg" width="10" height="10" viewBox="0 0 10 10">
  <g id="Group_356483" data-name="Group 356483" transform="translate(-10 -153)">
    <rect id="Rectangle_111825" data-name="Rectangle 111825" width="10" height="10" transform="translate(10 153)" fill="#b3b9c4" opacity="0"/>
    <path id="icons8-stacking" d="M10.284,4A.284.284,0,0,0,10,4.284V6.555A1.045,1.045,0,0,0,11.041,7.6h3.218A1.045,1.045,0,0,0,15.3,6.555V4.284A.284.284,0,0,0,15.016,4Zm.284.568h4.164V6.555a.469.469,0,0,1-.473.473H11.041a.469.469,0,0,1-.473-.473Zm1.609.568a.284.284,0,1,0,0,.568h.946a.284.284,0,1,0,0-.568ZM10.284,7.975A.284.284,0,0,0,10,8.259V10.53a1.045,1.045,0,0,0,1.041,1.041h3.218A1.045,1.045,0,0,0,15.3,10.53V8.259a.284.284,0,0,0-.284-.284Zm.284.568h4.164V10.53a.469.469,0,0,1-.473.473H11.041a.469.469,0,0,1-.473-.473Zm1.609.568a.284.284,0,1,0,0,.568h.946a.284.284,0,1,0,0-.568Z" transform="translate(2.474 150.5)" fill="#b3b9c4"/>
  </g>
</svg>
