<svg xmlns="http://www.w3.org/2000/svg" width="16" height="16" viewBox="0 0 16 16">
  <path id="icons8-language" d="M12,4a8.009,8.009,0,0,0-8,8,7.926,7.926,0,0,0,.9,3.627l-.867,3.1A1.021,1.021,0,0,0,5.27,19.962l3.107-.867A7.925,7.925,0,0,0,12,20,8,8,0,0,0,12,4Zm0,1.2A6.8,6.8,0,1,1,8.7,17.94a.6.6,0,0,0-.453-.054l-2.955.824.825-2.953A.6.6,0,0,0,6.06,15.3,6.8,6.8,0,0,1,12,5.2ZM14.991,7.59A.6.6,0,0,0,14.4,8.2v1.9a.6.6,0,0,0,0,.195v3.1a.6.6,0,1,0,1.2,0V10.8h.6a.6.6,0,1,0,0-1.2h-.6V8.2a.6.6,0,0,0-.609-.609ZM10.6,7.6a.6.6,0,1,0,0,1.2h1.8v.4a1.589,1.589,0,0,1-.582,1.234.6.6,0,0,0,.764.926A2.8,2.8,0,0,0,13.6,9.2v-1a.6.6,0,0,0-.6-.6Zm-.8,2a.6.6,0,0,0-.562.384l-2,5.2a.6.6,0,1,0,1.12.431L8.827,14.4h1.945l.467,1.216a.6.6,0,0,0,1.12-.431l-2-5.2A.6.6,0,0,0,9.8,9.6Zm0,2.272.511,1.328H9.289Z" transform="translate(-4 -3.998)" fill="#172b4d"/>
</svg>
