<svg xmlns="http://www.w3.org/2000/svg" xmlns:xlink="http://www.w3.org/1999/xlink" width="493.999" height="249.089" viewBox="0 0 493.999 249.089">
  <defs>
    <linearGradient id="linear-gradient" x1="0.5" x2="0.5" y2="1" gradientUnits="objectBoundingBox">
      <stop offset="0" stop-color="#5100c6"/>
      <stop offset="1" stop-color="#e2e2ff" stop-opacity="0"/>
    </linearGradient>
    <filter id="Ellipse_17616" x="0" y="112" width="91" height="91" filterUnits="userSpaceOnUse">
      <feOffset dy="3" input="SourceAlpha"/>
      <feGaussianBlur stdDeviation="6.5" result="blur"/>
      <feFlood flood-opacity="0.161"/>
      <feComposite operator="in" in2="blur"/>
      <feComposite in="SourceGraphic"/>
    </filter>
    <filter id="Ellipse_17620" x="402.999" y="112" width="91" height="91" filterUnits="userSpaceOnUse">
      <feOffset dy="3" input="SourceAlpha"/>
      <feGaussianBlur stdDeviation="6.5" result="blur-2"/>
      <feFlood flood-opacity="0.161"/>
      <feComposite operator="in" in2="blur-2"/>
      <feComposite in="SourceGraphic"/>
    </filter>
    <filter id="Ellipse_17617" x="71.999" y="29" width="91" height="91" filterUnits="userSpaceOnUse">
      <feOffset dy="3" input="SourceAlpha"/>
      <feGaussianBlur stdDeviation="6.5" result="blur-3"/>
      <feFlood flood-opacity="0.161"/>
      <feComposite operator="in" in2="blur-3"/>
      <feComposite in="SourceGraphic"/>
    </filter>
    <filter id="Ellipse_17619" x="325" y="29" width="91" height="91" filterUnits="userSpaceOnUse">
      <feOffset dy="3" input="SourceAlpha"/>
      <feGaussianBlur stdDeviation="6.5" result="blur-4"/>
      <feFlood flood-opacity="0.161"/>
      <feComposite operator="in" in2="blur-4"/>
      <feComposite in="SourceGraphic"/>
    </filter>
    <filter id="Ellipse_17618" x="201.999" y="0" width="91" height="91" filterUnits="userSpaceOnUse">
      <feOffset dy="3" input="SourceAlpha"/>
      <feGaussianBlur stdDeviation="6.5" result="blur-5"/>
      <feFlood flood-opacity="0.161"/>
      <feComposite operator="in" in2="blur-5"/>
      <feComposite in="SourceGraphic"/>
    </filter>
  </defs>
  <g id="Group_377921" data-name="Group 377921" transform="translate(-6.461 -348.5)">
    <path id="Path_359766" data-name="Path 359766" d="M-56,0h21.6V-6.2h-13l12.8-16V-28H-55.8v6.2h12.6L-56-5.8Zm34.4.4A10.187,10.187,0,0,0-11-10.2,10.187,10.187,0,0,0-21.6-20.8,10.187,10.187,0,0,0-32.2-10.2,10.187,10.187,0,0,0-21.6.4Zm0-5.6c-2.6,0-4.6-1.96-4.6-5s2-5,4.6-5,4.6,1.96,4.6,5S-19-5.2-21.6-5.2Zm1.4-18.4H-15v-5h-5.2Zm-8,0H-23v-5h-5.2ZM-1,0H5.4V-21.8h7.8V-28h-22v6.2H-1ZM23.6.4A10.187,10.187,0,0,0,34.2-10.2,10.187,10.187,0,0,0,23.6-20.8,10.187,10.187,0,0,0,13-10.2,10.187,10.187,0,0,0,23.6.4Zm0-5.6c-2.6,0-4.6-1.96-4.6-5s2-5,4.6-5,4.6,1.96,4.6,5S26.2-5.2,23.6-5.2ZM38.2,0h6V-9.6L51.6,0h6.8L50.2-10.4l7.8-10H51.2l-7,9.2V-28h-6Z" transform="translate(252.96 560.245)"/>
    <path id="Path_358514" data-name="Path 358514" d="M-14777.318-11816.56c-1.623-8.587-3.641-17.3-6-25.9a324.34,324.34,0,0,0-10.436-31.617c-10.107-25.988-23.168-49.211-38.822-69.021a217.59,217.59,0,0,0-30.7-31.75,204.742,204.742,0,0,0-39.787-26.16,212.722,212.722,0,0,0-23.676-10.11,229.886,229.886,0,0,0-26.4-7.661,258.177,258.177,0,0,0-29.277-4.858,300.5,300.5,0,0,0-32.309-1.7,299.784,299.784,0,0,0-32.053,1.678,253.661,253.661,0,0,0-28.926,4.8,222.911,222.911,0,0,0-25.969,7.568,204.365,204.365,0,0,0-23.18,9.988,193.936,193.936,0,0,0-38.629,25.854,204.275,204.275,0,0,0-29.414,31.4c-14.885,19.618-27.064,42.619-36.2,68.366a310.705,310.705,0,0,0-9.273,31.4c-2.053,8.574-3.754,17.26-5.059,25.814l-2.613-.4c1.316-8.63,3.033-17.388,5.1-26.033a312.766,312.766,0,0,1,9.354-31.67c9.227-26,21.535-49.245,36.582-69.079a207.14,207.14,0,0,1,29.795-31.8,196.555,196.555,0,0,1,39.162-26.207,206.9,206.9,0,0,1,23.477-10.12,225.726,225.726,0,0,1,26.277-7.657,256.34,256.34,0,0,1,29.23-4.852,302.3,302.3,0,0,1,32.336-1.693,303.761,303.761,0,0,1,32.594,1.715,261.005,261.005,0,0,1,29.578,4.909,232.38,232.38,0,0,1,26.7,7.751,215.524,215.524,0,0,1,23.971,10.235,207.3,207.3,0,0,1,40.3,26.5,220.177,220.177,0,0,1,31.078,32.134c15.816,20.018,29.01,43.47,39.213,69.705a327.493,327.493,0,0,1,10.518,31.874c2.381,8.667,4.416,17.45,6.049,26.107Z" transform="translate(15264.001 12414.148)" fill="url(#linear-gradient)"/>
    <g transform="matrix(1, 0, 0, 1, 6.46, 348.5)" filter="url(#Ellipse_17616)">
      <circle id="Ellipse_17616-2" data-name="Ellipse 17616" cx="26" cy="26" r="26" transform="translate(19.5 128.5)" fill="#fff"/>
    </g>
    <g transform="matrix(1, 0, 0, 1, 6.46, 348.5)" filter="url(#Ellipse_17620)">
      <circle id="Ellipse_17620-2" data-name="Ellipse 17620" cx="26" cy="26" r="26" transform="translate(422.5 128.5)" fill="#fff"/>
    </g>
    <g transform="matrix(1, 0, 0, 1, 6.46, 348.5)" filter="url(#Ellipse_17617)">
      <circle id="Ellipse_17617-2" data-name="Ellipse 17617" cx="26" cy="26" r="26" transform="translate(91.5 45.5)" fill="#fff"/>
    </g>
    <g transform="matrix(1, 0, 0, 1, 6.46, 348.5)" filter="url(#Ellipse_17619)">
      <circle id="Ellipse_17619-2" data-name="Ellipse 17619" cx="26" cy="26" r="26" transform="translate(344.5 45.5)" fill="#fff"/>
    </g>
    <g transform="matrix(1, 0, 0, 1, 6.46, 348.5)" filter="url(#Ellipse_17618)">
      <circle id="Ellipse_17618-2" data-name="Ellipse 17618" cx="26" cy="26" r="26" transform="translate(221.5 16.5)" fill="#fff"/>
    </g>
    <path id="Path_359761" data-name="Path 359761" d="M1.05,0H2.52V-4.2H7.07V-5.6H2.52V-8.4H7.35V-9.8H1.05ZM9.086,0h1.47V-7.49h.28L13.356,0h1.96l2.52-7.49h.28V0h1.47V-9.8h-2.52l-2.59,7.7H14.2l-2.59-7.7H9.086Zm19.8-3.36a2.92,2.92,0,0,1-2.87,2.1c-1.834,0-3.22-1.4-3.22-3.64s1.386-3.64,3.22-3.64a2.989,2.989,0,0,1,2.87,2.03h1.54a4.425,4.425,0,0,0-4.41-3.43,4.745,4.745,0,0,0-4.69,5.04A4.745,4.745,0,0,0,26.012.14a4.454,4.454,0,0,0,4.41-3.5ZM2.52,14.6v-7H4.48A3.244,3.244,0,0,1,7.7,11.1a3.244,3.244,0,0,1-3.22,3.5ZM1.05,16H4.48a4.665,4.665,0,0,0,4.69-4.9A4.665,4.665,0,0,0,4.48,6.2H1.05Zm9.716,0h1.4V9h-1.4ZM10.7,7.67h1.54V6.2H10.7Zm2.856,6.23c0,.77.77,2.24,3.01,2.24,1.96,0,2.87-.98,2.87-2.1,0-1.176-.672-1.876-2.03-2.1l-1.26-.21c-.63-.126-1.05-.406-1.05-.84s.406-.84,1.4-.84c1.05,0,1.47.56,1.47.98h1.4c0-.77-.84-2.17-2.87-2.17-1.89,0-2.8.91-2.8,2.03,0,1.19.686,1.806,2.03,2.03l1.26.21c.784.126,1.05.42,1.05.91,0,.434-.42.91-1.47.91-1.12,0-1.61-.63-1.61-1.05Zm7.616.63A1.375,1.375,0,0,0,22.708,16h1.47V14.74h-1.19a.371.371,0,0,1-.42-.42V10.33h1.61V9h-1.61V7.04h-1.4V9h-1.12v1.33h1.12ZM25.774,16h1.4V11.716a1.3,1.3,0,0,1,1.47-1.456h1.12V9H28.5a1.445,1.445,0,0,0-1.33.63H27.1L26.964,9h-1.19Zm5.1,0h1.4V9h-1.4ZM30.8,7.67h1.54V6.2H30.8ZM34.216,16h1.26l.14-.84h.07a2.557,2.557,0,0,0,2.17.98c1.834,0,3.22-1.4,3.22-3.64s-1.386-3.64-3.22-3.64a2.62,2.62,0,0,0-2.17.98h-.07V6.2h-1.4Zm3.43-1.12a2.142,2.142,0,0,1-2.03-2.38,2.056,2.056,0,1,1,4.06,0A2.142,2.142,0,0,1,37.646,14.88ZM42.6,13.2a2.678,2.678,0,0,0,2.8,2.94,2.859,2.859,0,0,0,1.512-.42,3.084,3.084,0,0,0,.518-.42h.07l.14.7H48.9V9H47.5v4.2a1.738,1.738,0,0,1-1.82,1.68A1.667,1.667,0,0,1,44,13.2V9H42.6Zm8.736,1.33A1.375,1.375,0,0,0,52.878,16h1.47V14.74h-1.19a.371.371,0,0,1-.42-.42V10.33h1.61V9h-1.61V7.04h-1.4V9h-1.12v1.33h1.12Zm7.476.35a2.151,2.151,0,0,1-2.1-2.38,2.116,2.116,0,1,1,4.2,0A2.151,2.151,0,0,1,58.814,14.88Zm0,1.26a3.42,3.42,0,0,0,3.5-3.64,3.5,3.5,0,1,0-7,0A3.42,3.42,0,0,0,58.814,16.14ZM63.84,16h1.4V11.716a1.3,1.3,0,0,1,1.47-1.456h1.12V9H66.57a1.445,1.445,0,0,0-1.33.63h-.07L65.03,9H63.84Z" transform="translate(37.96 550)" fill="#132c45"/>
    <path id="Path_359762" data-name="Path 359762" d="M1.05,0H2.52V-4.27H7.49V0H8.96V-9.8H7.49v4.13H2.52V-9.8H1.05ZM14.126-1.12a2.151,2.151,0,0,1-2.1-2.38,2.151,2.151,0,0,1,2.1-2.38,2.151,2.151,0,0,1,2.1,2.38A2.151,2.151,0,0,1,14.126-1.12Zm0,1.26a3.42,3.42,0,0,0,3.5-3.64,3.42,3.42,0,0,0-3.5-3.64,3.42,3.42,0,0,0-3.5,3.64A3.42,3.42,0,0,0,14.126.14ZM19.152,0h1.4V-4.284a1.3,1.3,0,0,1,1.47-1.456h1.12V-7h-1.26a1.445,1.445,0,0,0-1.33.63h-.07L20.342-7h-1.19Zm5.866-4.06a2.067,2.067,0,0,1,2.1-1.89,2.012,2.012,0,0,1,2.03,1.89ZM28.8-2.03a1.839,1.839,0,0,1-1.68.98,2.085,2.085,0,0,1-2.1-1.96h5.39l.028-.2a4.017,4.017,0,0,0,.042-.5,3.334,3.334,0,0,0-3.36-3.43,3.42,3.42,0,0,0-3.5,3.64,3.42,3.42,0,0,0,3.5,3.64,3.315,3.315,0,0,0,3.15-2.17Zm8.176-.42a1.82,1.82,0,0,1-1.82,1.33,2.151,2.151,0,0,1-2.1-2.38,2.151,2.151,0,0,1,2.1-2.38,1.81,1.81,0,0,1,1.82,1.26h1.4a3.208,3.208,0,0,0-3.22-2.52,3.42,3.42,0,0,0-3.5,3.64,3.42,3.42,0,0,0,3.5,3.64,3.182,3.182,0,0,0,3.22-2.59ZM44.38,0h1.19V-4.48A2.548,2.548,0,0,0,42.7-7.14c-1.75,0-2.8.994-2.87,2.17h1.4a1.332,1.332,0,0,1,1.47-.98,1.361,1.361,0,0,1,1.47,1.47v.14H42.42c-1.96,0-2.87.91-2.87,2.31A2.233,2.233,0,0,0,42.07.14a2.852,2.852,0,0,0,1.6-.448,1.984,1.984,0,0,0,.5-.462h.07Zm-.21-2.94a1.745,1.745,0,0,1-1.96,1.89c-.84,0-1.26-.42-1.26-1.05s.476-1.12,1.54-1.12h1.68ZM.56,12.99c0,1.75,1.4,3.15,3.85,3.15s3.71-1.26,3.71-2.87c0-1.554-.9-2.38-2.87-2.73l-1.54-.28c-1.064-.21-1.47-.7-1.47-1.33,0-.784.7-1.47,2.03-1.47,1.4,0,2.24.84,2.24,1.75H7.98c0-1.75-1.26-3.15-3.71-3.15C2.1,6.06.77,7.32.77,8.93a2.5,2.5,0,0,0,2.31,2.59l1.89.35c1.12.21,1.68.686,1.68,1.4,0,.84-.63,1.47-2.24,1.47-1.456,0-2.38-.84-2.38-1.75Zm9.156.21a2.678,2.678,0,0,0,2.8,2.94,2.859,2.859,0,0,0,1.512-.42,3.084,3.084,0,0,0,.518-.42h.07l.14.7h1.26V9h-1.4v4.2a1.738,1.738,0,0,1-1.82,1.68,1.667,1.667,0,0,1-1.68-1.68V9h-1.4Zm8.176,5.6h1.4V15.16h.07a2.557,2.557,0,0,0,2.17.98c1.834,0,3.22-1.4,3.22-3.64s-1.386-3.64-3.22-3.64a2.62,2.62,0,0,0-2.17.98h-.07L19.152,9h-1.26Zm3.43-3.92a2.142,2.142,0,0,1-2.03-2.38,2.056,2.056,0,1,1,4.06,0A2.142,2.142,0,0,1,21.322,14.88Zm4.956,3.92h1.4V15.16h.07a2.557,2.557,0,0,0,2.17.98c1.834,0,3.22-1.4,3.22-3.64s-1.386-3.64-3.22-3.64a2.62,2.62,0,0,0-2.17.98h-.07L27.538,9h-1.26Zm3.43-3.92a2.142,2.142,0,0,1-2.03-2.38,2.056,2.056,0,1,1,4.06,0A2.142,2.142,0,0,1,29.708,14.88ZM34.734,16h1.4V6.2h-1.4Zm3.346,0h1.4V9h-1.4Zm-.07-8.33h1.54V6.2H38.01Zm4.4,4.27a2.067,2.067,0,0,1,2.1-1.89,2.012,2.012,0,0,1,2.03,1.89Zm3.78,2.03a1.839,1.839,0,0,1-1.68.98,2.085,2.085,0,0,1-2.1-1.96H47.8l.028-.2a4.017,4.017,0,0,0,.042-.5,3.334,3.334,0,0,0-3.36-3.43,3.42,3.42,0,0,0-3.5,3.64,3.42,3.42,0,0,0,3.5,3.64,3.315,3.315,0,0,0,3.15-2.17ZM49.392,16h1.4V11.716a1.3,1.3,0,0,1,1.47-1.456h1.12V9h-1.26a1.445,1.445,0,0,0-1.33.63h-.07L50.582,9h-1.19Z" transform="translate(109.96 467)" fill="#132c45"/>
    <path id="Path_359764" data-name="Path 359764" d="M-63.854,0h6.44V-1.4h-4.97V-4.2h4.69V-5.6h-4.69V-8.4h4.97V-9.8h-6.44Zm8.246,0h1.4V-9.8h-1.4Zm4.4-4.06a2.067,2.067,0,0,1,2.1-1.89,2.012,2.012,0,0,1,2.03,1.89Zm3.78,2.03a1.839,1.839,0,0,1-1.68.98,2.085,2.085,0,0,1-2.1-1.96h5.39l.028-.2a4.017,4.017,0,0,0,.042-.5,3.334,3.334,0,0,0-3.36-3.43,3.42,3.42,0,0,0-3.5,3.64,3.42,3.42,0,0,0,3.5,3.64,3.315,3.315,0,0,0,3.15-2.17Zm8.176-.42a1.82,1.82,0,0,1-1.82,1.33,2.151,2.151,0,0,1-2.1-2.38,2.151,2.151,0,0,1,2.1-2.38,1.81,1.81,0,0,1,1.82,1.26h1.4a3.208,3.208,0,0,0-3.22-2.52,3.42,3.42,0,0,0-3.5,3.64,3.42,3.42,0,0,0,3.5,3.64,3.182,3.182,0,0,0,3.22-2.59Zm3.416.98A1.375,1.375,0,0,0-34.3,0h1.47V-1.26h-1.19a.371.371,0,0,1-.42-.42V-5.67h1.61V-7h-1.61V-8.96h-1.4V-7h-1.12v1.33h1.12ZM-31.234,0h1.4V-4.284a1.3,1.3,0,0,1,1.47-1.456h1.12V-7H-28.5a1.445,1.445,0,0,0-1.33.63h-.07l-.14-.63h-1.19Zm7.966-1.12a2.151,2.151,0,0,1-2.1-2.38,2.151,2.151,0,0,1,2.1-2.38,2.151,2.151,0,0,1,2.1,2.38A2.151,2.151,0,0,1-23.268-1.12Zm0,1.26a3.42,3.42,0,0,0,3.5-3.64,3.42,3.42,0,0,0-3.5-3.64,3.42,3.42,0,0,0-3.5,3.64A3.42,3.42,0,0,0-23.268.14ZM-18.242,0h1.4V-4.2a1.738,1.738,0,0,1,1.82-1.68,1.667,1.667,0,0,1,1.68,1.68V0h1.4V-4.2a2.678,2.678,0,0,0-2.8-2.94,2.819,2.819,0,0,0-1.512.42,3.084,3.084,0,0,0-.518.42h-.07l-.14-.7h-1.26Zm8.106,0h1.4V-7h-1.4Zm-.07-8.33h1.54V-9.8h-1.54ZM-1.89-2.45A1.82,1.82,0,0,1-3.71-1.12,2.151,2.151,0,0,1-5.81-3.5a2.151,2.151,0,0,1,2.1-2.38A1.81,1.81,0,0,1-1.89-4.62h1.4A3.208,3.208,0,0,0-3.71-7.14,3.42,3.42,0,0,0-7.21-3.5,3.42,3.42,0,0,0-3.71.14,3.182,3.182,0,0,0-.49-2.45ZM-69.874,16h2.24l1.89-7.35h.28l1.89,7.35h2.24l2.45-9.8h-1.61l-1.89,7.7h-.28l-2.03-7.7h-1.82l-2.03,7.7h-.28l-1.89-7.7h-1.61Zm12.166,0h1.4V11.8a1.738,1.738,0,0,1,1.82-1.68,1.667,1.667,0,0,1,1.68,1.68V16h1.4V11.8a2.678,2.678,0,0,0-2.8-2.94,2.819,2.819,0,0,0-1.512.42,3.084,3.084,0,0,0-.518.42h-.07V6.2h-1.4Zm11.256-1.12a2.151,2.151,0,0,1-2.1-2.38,2.151,2.151,0,0,1,2.1-2.38,2.151,2.151,0,0,1,2.1,2.38A2.151,2.151,0,0,1-46.452,14.88Zm0,1.26a3.42,3.42,0,0,0,3.5-3.64,3.42,3.42,0,0,0-3.5-3.64,3.42,3.42,0,0,0-3.5,3.64A3.42,3.42,0,0,0-46.452,16.14Zm5.1-.14h1.4V6.2h-1.4Zm4.4-4.06a2.067,2.067,0,0,1,2.1-1.89,2.012,2.012,0,0,1,2.03,1.89Zm3.78,2.03a1.839,1.839,0,0,1-1.68.98,2.085,2.085,0,0,1-2.1-1.96h5.39l.028-.2a4.017,4.017,0,0,0,.042-.5,3.334,3.334,0,0,0-3.36-3.43,3.42,3.42,0,0,0-3.5,3.64,3.42,3.42,0,0,0,3.5,3.64,3.315,3.315,0,0,0,3.15-2.17Zm2.716-.07c0,.77.77,2.24,3.01,2.24,1.96,0,2.87-.98,2.87-2.1,0-1.176-.672-1.876-2.03-2.1l-1.26-.21c-.63-.126-1.05-.406-1.05-.84s.406-.84,1.4-.84c1.05,0,1.47.56,1.47.98h1.4c0-.77-.84-2.17-2.87-2.17-1.89,0-2.8.91-2.8,2.03,0,1.19.686,1.806,2.03,2.03l1.26.21c.784.126,1.05.42,1.05.91,0,.434-.42.91-1.47.91-1.12,0-1.61-.63-1.61-1.05ZM-18.578,16h1.19V11.52a2.548,2.548,0,0,0-2.87-2.66c-1.75,0-2.8.994-2.87,2.17h1.4a1.332,1.332,0,0,1,1.47-.98,1.361,1.361,0,0,1,1.47,1.47v.14h-1.75c-1.96,0-2.87.91-2.87,2.31a2.233,2.233,0,0,0,2.52,2.17,2.852,2.852,0,0,0,1.6-.448,1.984,1.984,0,0,0,.5-.462h.07Zm-.21-2.94a1.745,1.745,0,0,1-1.96,1.89c-.84,0-1.26-.42-1.26-1.05s.476-1.12,1.54-1.12h1.68ZM-15.512,16h1.4V6.2h-1.4Zm4.4-4.06a2.067,2.067,0,0,1,2.1-1.89,2.012,2.012,0,0,1,2.03,1.89Zm3.78,2.03a1.839,1.839,0,0,1-1.68.98,2.085,2.085,0,0,1-2.1-1.96h5.39l.028-.2a4.017,4.017,0,0,0,.042-.5,3.334,3.334,0,0,0-3.36-3.43,3.42,3.42,0,0,0-3.5,3.64,3.42,3.42,0,0,0,3.5,3.64,3.315,3.315,0,0,0,3.15-2.17ZM-4.13,16h1.4V11.716A1.3,1.3,0,0,1-1.26,10.26H-.14V9H-1.4a1.445,1.445,0,0,0-1.33.63H-2.8L-2.94,9H-4.13Z" transform="translate(390.96 467)" fill="#132c45"/>
    <path id="Path_359763" data-name="Path 359763" d="M0,0H1.725l.9-2.475h4.8L8.325,0H10.05L6.225-10.5h-2.4ZM3.15-3.9,4.875-8.7h.3L6.9-3.9ZM14.31-1.8a2.091,2.091,0,0,1-2.1-2.25,2.091,2.091,0,0,1,2.1-2.25,2.091,2.091,0,0,1,2.1,2.25A2.091,2.091,0,0,1,14.31-1.8ZM10.935.45c.075,1.035.975,2.7,3.45,2.7,2.25,0,3.525-1.335,3.525-3.3V-7.5H16.56l-.15.825h-.075A2.776,2.776,0,0,0,14.01-7.65a3.326,3.326,0,0,0-3.3,3.6,3.326,3.326,0,0,0,3.3,3.6,2.836,2.836,0,0,0,2.325-.9h.075v1.2A1.911,1.911,0,0,1,14.385,1.8c-1.215,0-1.875-.675-1.95-1.35ZM19.92,0h1.5V-4.59a1.388,1.388,0,0,1,1.575-1.56h1.2V-7.5h-1.35a1.548,1.548,0,0,0-1.425.675h-.075l-.15-.675H19.92Zm5.46,0h1.5V-7.5h-1.5Zm-.075-8.925h1.65V-10.5h-1.65ZM40.275-3.6A3.128,3.128,0,0,1,37.2-1.35c-1.965,0-3.45-1.5-3.45-3.9s1.485-3.9,3.45-3.9a3.2,3.2,0,0,1,3.075,2.175h1.65A4.741,4.741,0,0,0,37.2-10.65a5.084,5.084,0,0,0-5.025,5.4A5.084,5.084,0,0,0,37.2.15,4.772,4.772,0,0,0,41.925-3.6ZM43.635,0H45.21V-4.5h4.875V-6H45.21V-9h5.175v-1.5h-6.75ZM50.52,0h1.725l.9-2.475h4.8L58.845,0H60.57L56.745-10.5h-2.4Zm3.15-3.9L55.4-8.7h.3L57.42-3.9Z" transform="translate(222.959 439)" fill="#132c45"/>
    <path id="Path_359765" data-name="Path 359765" d="M-75.866-3.36a2.92,2.92,0,0,1-2.87,2.1c-1.834,0-3.22-1.4-3.22-3.64s1.386-3.64,3.22-3.64a2.989,2.989,0,0,1,2.87,2.03h1.54a4.425,4.425,0,0,0-4.41-3.43,4.745,4.745,0,0,0-4.69,5.04A4.745,4.745,0,0,0-78.736.14a4.454,4.454,0,0,0,4.41-3.5Zm6.146,2.24a2.151,2.151,0,0,1-2.1-2.38,2.151,2.151,0,0,1,2.1-2.38,2.151,2.151,0,0,1,2.1,2.38A2.151,2.151,0,0,1-69.72-1.12Zm0,1.26a3.42,3.42,0,0,0,3.5-3.64,3.42,3.42,0,0,0-3.5-3.64,3.42,3.42,0,0,0-3.5,3.64A3.42,3.42,0,0,0-69.72.14ZM-64.694,0h1.4V-4.2a1.738,1.738,0,0,1,1.82-1.68,1.667,1.667,0,0,1,1.68,1.68V0h1.4V-4.2a2.678,2.678,0,0,0-2.8-2.94,2.819,2.819,0,0,0-1.512.42,3.084,3.084,0,0,0-.518.42h-.07l-.14-.7h-1.26Zm7.616-2.1c0,.77.77,2.24,3.01,2.24,1.96,0,2.87-.98,2.87-2.1,0-1.176-.672-1.876-2.03-2.1l-1.26-.21c-.63-.126-1.05-.406-1.05-.84s.406-.84,1.4-.84c1.05,0,1.47.56,1.47.98h1.4c0-.77-.84-2.17-2.87-2.17-1.89,0-2.8.91-2.8,2.03,0,1.19.686,1.806,2.03,2.03l1.26.21c.784.126,1.05.42,1.05.91,0,.434-.42.91-1.47.91-1.12,0-1.61-.63-1.61-1.05Zm7.616.63A1.375,1.375,0,0,0-47.922,0h1.47V-1.26h-1.19a.371.371,0,0,1-.42-.42V-5.67h1.61V-7h-1.61V-8.96h-1.4V-7h-1.12v1.33h1.12ZM-44.856,0h1.4V-4.284a1.3,1.3,0,0,1,1.47-1.456h1.12V-7h-1.26a1.445,1.445,0,0,0-1.33.63h-.07l-.14-.63h-1.19Zm5.1-2.8A2.678,2.678,0,0,0-36.96.14a2.859,2.859,0,0,0,1.512-.42A3.084,3.084,0,0,0-34.93-.7h.07l.14.7h1.26V-7h-1.4v4.2a1.738,1.738,0,0,1-1.82,1.68A1.667,1.667,0,0,1-38.36-2.8V-7h-1.4Zm13.146.35a1.82,1.82,0,0,1-1.82,1.33,2.151,2.151,0,0,1-2.1-2.38,2.151,2.151,0,0,1,2.1-2.38,1.81,1.81,0,0,1,1.82,1.26h1.4a3.208,3.208,0,0,0-3.22-2.52,3.42,3.42,0,0,0-3.5,3.64,3.42,3.42,0,0,0,3.5,3.64,3.182,3.182,0,0,0,3.22-2.59Zm3.416.98A1.375,1.375,0,0,0-21.658,0h1.47V-1.26h-1.19a.371.371,0,0,1-.42-.42V-5.67h1.61V-7H-21.8V-8.96h-1.4V-7h-1.12v1.33h1.12ZM-18.592,0h1.4V-7h-1.4Zm-.07-8.33h1.54V-9.8h-1.54Zm6.5,7.21a2.151,2.151,0,0,1-2.1-2.38,2.151,2.151,0,0,1,2.1-2.38,2.151,2.151,0,0,1,2.1,2.38A2.151,2.151,0,0,1-12.166-1.12Zm0,1.26a3.42,3.42,0,0,0,3.5-3.64,3.42,3.42,0,0,0-3.5-3.64,3.42,3.42,0,0,0-3.5,3.64A3.42,3.42,0,0,0-12.166.14ZM-7.14,0h1.4V-4.2A1.738,1.738,0,0,1-3.92-5.88,1.667,1.667,0,0,1-2.24-4.2V0h1.4V-4.2a2.678,2.678,0,0,0-2.8-2.94,2.819,2.819,0,0,0-1.512.42,3.084,3.084,0,0,0-.518.42h-.07L-5.88-7H-7.14ZM-114,16h1.47V8.51h.28l2.52,7.49h1.96l2.52-7.49h.28V16h1.47V6.2h-2.52l-2.59,7.7h-.28l-2.59-7.7H-114Zm17.066,0h1.19V11.52a2.548,2.548,0,0,0-2.87-2.66c-1.75,0-2.8.994-2.87,2.17h1.4a1.332,1.332,0,0,1,1.47-.98,1.361,1.361,0,0,1,1.47,1.47v.14H-98.9c-1.96,0-2.87.91-2.87,2.31a2.233,2.233,0,0,0,2.52,2.17,2.852,2.852,0,0,0,1.6-.448,1.984,1.984,0,0,0,.5-.462h.07Zm-.21-2.94a1.745,1.745,0,0,1-1.96,1.89c-.84,0-1.26-.42-1.26-1.05s.476-1.12,1.54-1.12h1.68Zm3.486,1.47A1.375,1.375,0,0,0-92.12,16h1.47V14.74h-1.19a.371.371,0,0,1-.42-.42V10.33h1.61V9h-1.61V7.04h-1.4V9h-1.12v1.33h1.12Zm5.376-2.59a2.067,2.067,0,0,1,2.1-1.89,2.012,2.012,0,0,1,2.03,1.89Zm3.78,2.03a1.839,1.839,0,0,1-1.68.98,2.085,2.085,0,0,1-2.1-1.96h5.39l.028-.2a4.017,4.017,0,0,0,.042-.5,3.334,3.334,0,0,0-3.36-3.43,3.42,3.42,0,0,0-3.5,3.64,3.42,3.42,0,0,0,3.5,3.64,3.315,3.315,0,0,0,3.15-2.17ZM-81.3,16h1.4V11.716a1.3,1.3,0,0,1,1.47-1.456h1.12V9h-1.26a1.445,1.445,0,0,0-1.33.63h-.07l-.14-.63H-81.3Zm5.1,0h1.4V9h-1.4Zm-.07-8.33h1.54V6.2h-1.54Zm7.9,8.33h1.19V11.52a2.548,2.548,0,0,0-2.87-2.66c-1.75,0-2.8.994-2.87,2.17h1.4a1.332,1.332,0,0,1,1.47-.98,1.361,1.361,0,0,1,1.47,1.47v.14h-1.75c-1.96,0-2.87.91-2.87,2.31a2.233,2.233,0,0,0,2.52,2.17,2.852,2.852,0,0,0,1.6-.448,1.984,1.984,0,0,0,.5-.462h.07Zm-.21-2.94a1.745,1.745,0,0,1-1.96,1.89c-.84,0-1.26-.42-1.26-1.05s.476-1.12,1.54-1.12h1.68ZM-65.31,16h1.4V6.2h-1.4Zm6.342-3.01c0,1.75,1.4,3.15,3.85,3.15s3.71-1.26,3.71-2.87c0-1.554-.9-2.38-2.87-2.73l-1.54-.28c-1.064-.21-1.47-.7-1.47-1.33,0-.784.7-1.47,2.03-1.47,1.4,0,2.24.84,2.24,1.75h1.47c0-1.75-1.26-3.15-3.71-3.15-2.17,0-3.5,1.26-3.5,2.87a2.5,2.5,0,0,0,2.31,2.59l1.89.35c1.12.21,1.68.686,1.68,1.4,0,.84-.63,1.47-2.24,1.47-1.456,0-2.38-.84-2.38-1.75Zm9.436,1.54A1.375,1.375,0,0,0-47.992,16h1.47V14.74h-1.19a.371.371,0,0,1-.42-.42V10.33h1.61V9h-1.61V7.04h-1.4V9h-1.12v1.33h1.12Zm7.476.35a2.151,2.151,0,0,1-2.1-2.38,2.151,2.151,0,0,1,2.1-2.38,2.151,2.151,0,0,1,2.1,2.38A2.151,2.151,0,0,1-42.056,14.88Zm0,1.26a3.42,3.42,0,0,0,3.5-3.64,3.42,3.42,0,0,0-3.5-3.64,3.42,3.42,0,0,0-3.5,3.64A3.42,3.42,0,0,0-42.056,16.14Zm10-2.59a1.82,1.82,0,0,1-1.82,1.33,2.151,2.151,0,0,1-2.1-2.38,2.151,2.151,0,0,1,2.1-2.38,1.81,1.81,0,0,1,1.82,1.26h1.4a3.208,3.208,0,0,0-3.22-2.52,3.42,3.42,0,0,0-3.5,3.64,3.42,3.42,0,0,0,3.5,3.64,3.182,3.182,0,0,0,3.22-2.59ZM-29.134,16h1.4V12.64l3.08,3.36h1.68l-3.29-3.57L-23.114,9h-1.68l-2.94,3.22V6.2h-1.4Zm7.056,0h1.4V9h-1.4Zm-.07-8.33h1.54V6.2h-1.54Zm4.4,4.27a2.067,2.067,0,0,1,2.1-1.89,2.012,2.012,0,0,1,2.03,1.89Zm3.78,2.03a1.839,1.839,0,0,1-1.68.98,2.085,2.085,0,0,1-2.1-1.96h5.39l.028-.2a4.017,4.017,0,0,0,.042-.5,3.334,3.334,0,0,0-3.36-3.43,3.42,3.42,0,0,0-3.5,3.64,3.42,3.42,0,0,0,3.5,3.64,3.315,3.315,0,0,0,3.15-2.17Zm2.716-.07c0,.77.77,2.24,3.01,2.24,1.96,0,2.87-.98,2.87-2.1,0-1.176-.672-1.876-2.03-2.1l-1.26-.21c-.63-.126-1.05-.406-1.05-.84s.406-.84,1.4-.84c1.05,0,1.47.56,1.47.98h1.4c0-.77-.84-2.17-2.87-2.17-1.89,0-2.8.91-2.8,2.03,0,1.19.686,1.806,2.03,2.03l1.26.21c.784.126,1.05.42,1.05.91,0,.434-.42.91-1.47.91-1.12,0-1.61-.63-1.61-1.05Zm7.616.63A1.375,1.375,0,0,0-2.1,16H-.63V14.74H-1.82a.371.371,0,0,1-.42-.42V10.33H-.63V9H-2.24V7.04h-1.4V9H-4.76v1.33h1.12Z" transform="translate(468.959 550)" fill="#132c45"/>
    <path id="icons8-conflict" d="M5.178,3.98a1.2,1.2,0,0,0-.835,2.059l2.4,2.4a1.2,1.2,0,1,0,1.7-1.7l-2.4-2.4a1.2,1.2,0,0,0-.86-.363Zm21.568,0a1.2,1.2,0,0,0-.824.363l-2.4,2.4a1.2,1.2,0,1,0,1.7,1.7l2.4-2.4a1.2,1.2,0,0,0-.871-2.059Zm-8.639.012a.9.9,0,0,0-.725.33L6.594,17.515a.9.9,0,0,0,.7,1.469h5.694v8.1a.9.9,0,0,0,1.595.569L25.367,14.456a.9.9,0,0,0-.7-1.469H18.978v-8.1a.9.9,0,0,0-.87-.9ZM7.565,23.17a1.2,1.2,0,0,0-.824.363l-2.4,2.4a1.2,1.2,0,1,0,1.7,1.7l2.4-2.4a1.2,1.2,0,0,0-.871-2.059Zm16.794,0a1.2,1.2,0,0,0-.835,2.059l2.4,2.4a1.2,1.2,0,1,0,1.7-1.7l-2.4-2.4a1.2,1.2,0,0,0-.86-.363Z" transform="translate(35.979 487.021)" fill="#ffb723"/>
    <path id="icons8-hotel_star" d="M16,1a.29.29,0,0,0-.267.172l-.272.6-.83.129a.3.3,0,0,0-.163.5l.562.564-.117.7a.293.293,0,0,0,.43.306L16,3.616l.658.361a.293.293,0,0,0,.429-.307l-.116-.7.562-.565a.3.3,0,0,0-.163-.5l-.83-.128-.272-.6A.289.289,0,0,0,16,1ZM11.556,2.674a.29.29,0,0,0-.267.172l-.272.6-.83.129a.3.3,0,0,0-.163.5l.562.564-.117.7a.293.293,0,0,0,.43.306l.658-.36.658.361a.293.293,0,0,0,.429-.307l-.116-.7.562-.565a.3.3,0,0,0-.163-.5l-.83-.128-.272-.6A.289.289,0,0,0,11.556,2.674Zm8.889,0a.289.289,0,0,0-.267.172l-.272.6-.83.128a.3.3,0,0,0-.163.5l.562.565-.116.7a.293.293,0,0,0,.429.307l.658-.361.658.36a.293.293,0,0,0,.43-.306l-.117-.7.562-.564a.3.3,0,0,0-.163-.5l-.83-.129-.272-.6A.29.29,0,0,0,20.444,2.674ZM15.96,5.466a.83.83,0,0,0-.323.083L7.72,9.406h0A3.08,3.08,0,0,0,6,12.168V23.6A1.4,1.4,0,0,0,7.389,25h5.556a.835.835,0,0,0,.833-.837V19.14a.833.833,0,0,1,.833-.837h2.778a.833.833,0,0,1,.833.837v5.023a.835.835,0,0,0,.833.837h5.556A1.4,1.4,0,0,0,26,23.6V12.168a3.08,3.08,0,0,0-1.718-2.761h0L16.363,5.549a.83.83,0,0,0-.4-.083Zm-7.182,6.7H11a.558.558,0,0,1,.556.558v2.233a.558.558,0,0,1-.556.558H8.778a.558.558,0,0,1-.556-.558V12.721A.558.558,0,0,1,8.778,12.163Zm6.111,0h2.222a.558.558,0,0,1,.556.558v2.233a.558.558,0,0,1-.556.558H14.889a.558.558,0,0,1-.556-.558V12.721A.558.558,0,0,1,14.889,12.163Zm6.111,0h2.222a.558.558,0,0,1,.556.558v2.233a.558.558,0,0,1-.556.558H21a.558.558,0,0,1-.556-.558V12.721A.558.558,0,0,1,21,12.163ZM8.778,18.86H11a.558.558,0,0,1,.556.558v2.233a.558.558,0,0,1-.556.558H8.778a.558.558,0,0,1-.556-.558V19.419A.558.558,0,0,1,8.778,18.86ZM21,18.86h2.222a.558.558,0,0,1,.556.558v2.233a.558.558,0,0,1-.556.558H21a.558.558,0,0,1-.556-.558V19.419A.558.558,0,0,1,21,18.86Z" transform="translate(107.961 407)" fill="#247dff"/>
    <path id="icons8-bay_leaf" d="M20.225,2.027a.823.823,0,0,0-.632.277,28.881,28.881,0,0,0-3.37,5.17A14.074,14.074,0,0,1,19.3,9.739c5.105,5.07,4.831,9.463,4.111,11.786C24.742,20.179,26,17.847,26,13.834,26,8.448,21.067,2.553,20.857,2.3A.823.823,0,0,0,20.225,2.027ZM4.9,5.293a.836.836,0,0,0-.655.237A.816.816,0,0,0,4,6.18c.032.372.848,9.159,5.255,13.536,3.325,3.3,6.283,4.161,8.457,4.161A7.835,7.835,0,0,0,19.5,23.67c-.068-.22-.14-.446-.221-.68-2.646-7.58-9.293-11.842-10.042-12.3l-.054-.035a.544.544,0,0,1-.134-.761.552.552,0,0,1,.766-.133,26.3,26.3,0,0,1,10.5,12.875,20.884,20.884,0,0,1,.732,2.633.822.822,0,0,0,.822.761h.06a.822.822,0,0,0,.764-.877,18.945,18.945,0,0,0-.761-2.875c.694-1.336,2.408-5.985-3.41-11.763C14.121,6.136,5.272,5.325,4.9,5.293Z" transform="translate(238.961 376.973)" fill="#3ad394"/>
    <path id="icons8-charging_battery" d="M7.3,12A3.259,3.259,0,0,0,4,15.208v7.583A3.259,3.259,0,0,0,7.3,26h15a3.259,3.259,0,0,0,3.3-3.208V21.333h1.2A1.183,1.183,0,0,0,28,20.167V17.833a1.183,1.183,0,0,0-1.2-1.167H25.6V15.208A3.259,3.259,0,0,0,22.3,12Zm6.784,3.5a.433.433,0,0,1,.219.092l5.743,3.834a.414.414,0,0,1,.154.32.408.408,0,0,1-.047.19.433.433,0,0,1-.487.214L16,19v3.083a.417.417,0,0,1-.247.378A.438.438,0,0,1,15.3,22.4L9.555,18.57a.409.409,0,0,1-.108-.51.433.433,0,0,1,.488-.214L13.6,19V15.917a.417.417,0,0,1,.247-.378A.437.437,0,0,1,14.084,15.5Z" transform="translate(360.961 401)" fill="#f4481e"/>
    <path id="icons8-construction_trowel" d="M24.743,3a2.093,2.093,0,0,0-.568.07L9.694,6.456A2.069,2.069,0,0,0,8.333,7.61a2.192,2.192,0,0,0,.057,1.9l2.326,4.554,2.555-2.554a3.693,3.693,0,0,1,5.223,5.223l-2.543,2.544,4.669,2.343a2.267,2.267,0,0,0,1.011.24,2.141,2.141,0,0,0,.881-.189,2.09,2.09,0,0,0,1.16-1.389L26.929,5.856a2.253,2.253,0,0,0-.6-2.178A2.3,2.3,0,0,0,24.743,3Zm-8.867,8.576a2.545,2.545,0,0,0-1.8.742l-3.669,3.669a1.518,1.518,0,0,1,.205.176l3.229,3.229a1.519,1.519,0,0,1,.176.205l3.669-3.669a2.556,2.556,0,0,0-1.812-4.353ZM9.2,16.724a.856.856,0,0,0-.606.241L3.708,21.849a2.529,2.529,0,0,0,.067,3.57l.809.808A2.611,2.611,0,0,0,6.429,27a2.422,2.422,0,0,0,1.723-.7l4.884-4.884a.857.857,0,0,0,0-1.212L9.8,16.965A.856.856,0,0,0,9.2,16.724Z" transform="translate(439.958 488.004)" fill="#959595"/>
  </g>
</svg>
