<svg id="Group_139651" data-name="Group 139651" xmlns="http://www.w3.org/2000/svg" xmlns:xlink="http://www.w3.org/1999/xlink" width="31.998" height="32" viewBox="0 0 31.998 32">
  <defs>
    <linearGradient id="linear-gradient" y1="0.847" x2="1.214" y2="0.074" gradientUnits="objectBoundingBox">
      <stop offset="0" stop-color="#cc3334"/>
      <stop offset="0.522" stop-color="#8546db"/>
      <stop offset="1" stop-color="#2b9ad9"/>
    </linearGradient>
  </defs>
  <path id="Path_252748" data-name="Path 252748" d="M16,0C27.7,0,32,4.3,32,16S27.7,32,16,32,0,27.7,0,16,4.3,0,16,0Z" fill="url(#linear-gradient)"/>
  <path id="Union_80" data-name="Union 80" d="M23584.109,9415.61a.108.108,0,0,1-.107-.106v-.261a.107.107,0,0,1,.107-.106h9.932a.1.1,0,0,1,.107.106v.261a.1.1,0,0,1-.107.106Zm0-3.044a.108.108,0,0,1-.107-.107v-.325a.1.1,0,0,1,.031-.071l8.533-8.54h-6.764a.106.106,0,0,1-.105-.106v-.261a.105.105,0,0,1,.105-.106h12.367a.107.107,0,0,1,.111.106v.326a.1.1,0,0,1-.035.076l-8.51,8.534h6.738a.106.106,0,0,1,.107.107v.26a.106.106,0,0,1-.107.107Zm.58-.475h4.354l8.564-8.563h-4.377Zm3.547-11.613a.107.107,0,0,1-.111-.106v-.261a.107.107,0,0,1,.111-.106h9.934a.105.105,0,0,1,.105.106v.261a.106.106,0,0,1-.105.106Z" transform="translate(-23575.029 -9391.732)" fill="#fff" stroke="#fff" stroke-width="0.5"/>
</svg>
