<svg xmlns="http://www.w3.org/2000/svg" xmlns:xlink="http://www.w3.org/1999/xlink" width="488" height="305.25" viewBox="0 0 488 305.25">
  <defs>
    <filter id="Rectangle_116715" x="64.25" y="87.25" width="360.5" height="158.5" filterUnits="userSpaceOnUse">
      <feOffset dy="2" input="SourceAlpha"/>
      <feGaussianBlur stdDeviation="6.5" result="blur"/>
      <feFlood flood-color="#626f86" flood-opacity="0.2"/>
      <feComposite operator="in" in2="blur"/>
      <feComposite in="SourceGraphic"/>
    </filter>
    <linearGradient id="linear-gradient" y1="0.5" x2="1" y2="0.5" gradientUnits="objectBoundingBox">
      <stop offset="0" stop-color="#cc6700"/>
      <stop offset="0.116" stop-color="#ce7507"/>
      <stop offset="0.351" stop-color="#d38c13"/>
      <stop offset="0.5" stop-color="#d49417"/>
      <stop offset="1" stop-color="#cc6700"/>
    </linearGradient>
    <linearGradient id="linear-gradient-2" x1="0.156" y1="0.864" x2="0.844" y2="0.136" gradientUnits="objectBoundingBox">
      <stop offset="0" stop-color="#e07000"/>
      <stop offset="0.144" stop-color="#e38309"/>
      <stop offset="0.362" stop-color="#e79a15"/>
      <stop offset="0.5" stop-color="#e8a219"/>
      <stop offset="1" stop-color="#e07000"/>
    </linearGradient>
    <linearGradient id="linear-gradient-3" x1="0.156" y1="0.864" x2="0.844" y2="0.136" gradientUnits="objectBoundingBox">
      <stop offset="0" stop-color="#f2ad00"/>
      <stop offset="0.124" stop-color="#f6c43b"/>
      <stop offset="0.249" stop-color="#fad86e"/>
      <stop offset="0.358" stop-color="#fde794"/>
      <stop offset="0.445" stop-color="#fef0ab"/>
      <stop offset="0.5" stop-color="#fff3b3"/>
      <stop offset="1" stop-color="#f2ad00"/>
    </linearGradient>
    <linearGradient id="linear-gradient-4" x1="0.155" y1="0.955" x2="0.845" y2="0.209" gradientUnits="objectBoundingBox">
      <stop offset="0" stop-color="#f2ad00"/>
      <stop offset="0.145" stop-color="#f6c43b"/>
      <stop offset="0.29" stop-color="#fad86e"/>
      <stop offset="0.416" stop-color="#fde794"/>
      <stop offset="0.517" stop-color="#fef0ab"/>
      <stop offset="0.581" stop-color="#fff3b3"/>
      <stop offset="1" stop-color="#f2ad00"/>
    </linearGradient>
    <linearGradient id="linear-gradient-5" x1="0.5" y1="0.195" x2="0.5" y2="1" gradientUnits="objectBoundingBox">
      <stop offset="0" stop-color="#e8d8ff" stop-opacity="0"/>
      <stop offset="0.472" stop-color="#e8d8ff"/>
      <stop offset="1" stop-color="#e8d8ff"/>
    </linearGradient>
    <linearGradient id="linear-gradient-6" y1="0.805" y2="0" xlink:href="#linear-gradient-5"/>
  </defs>
  <g id="Group_378219" data-name="Group 378219" transform="translate(-750 -2563)">
    <g id="Group_378002" data-name="Group 378002" transform="translate(5 1395)">
      <g id="Group_378218" data-name="Group 378218">
        <path id="Rectangle_116715-2" data-name="Rectangle 116715" d="M8,0H268.023a8,8,0,0,1,8,8V69a0,0,0,0,1,0,0H0a0,0,0,0,1,0,0V8A8,8,0,0,1,8,0Z" transform="translate(853 1404)" fill="#fff" stroke="rgba(255,255,255,0.5)" stroke-width="0.5"/>
        <g id="Group_377953" data-name="Group 377953" transform="translate(-166.5 57)">
          <g id="Group_377955" data-name="Group 377955" transform="translate(12.523)">
            <g id="Group_377968" data-name="Group 377968" transform="translate(27.736 -3)">
              <g id="Group_377965" data-name="Group 377965" transform="translate(765 1194)">
                <rect id="Rectangle_113342" data-name="Rectangle 113342" width="57" height="15" rx="7.5" transform="translate(316 207)" fill="none" stroke="#257dff" stroke-width="0.7"/>
                <text id="Exercires" transform="translate(324 217)" fill="#257dff" font-size="7" font-family="TTHoves-DemiBold, TT Hoves" font-weight="300"><tspan x="0" y="0">Call Mahesh</tspan></text>
              </g>
              <g id="Group_377966" data-name="Group 377966" transform="translate(710 1194)">
                <rect id="Rectangle_113342-2" data-name="Rectangle 113342" width="46" height="15" rx="7.5" transform="translate(321 207)" fill="#257dff"/>
                <text id="Exercires-2" data-name="Exercires" transform="translate(329 217)" fill="#fff" font-size="7" font-family="TTHoves-DemiBold, TT Hoves" font-weight="300"><tspan x="0" y="0">Message</tspan></text>
              </g>
            </g>
            <text id="Your_order_for_INV47348_has_been_shipped._Mahesh_is_out_for_delivery._" data-name="Your order for INV47348 has been shipped. Mahesh is out for delivery. " transform="translate(1058 1370)" fill="#758195" font-size="9" font-family="TTHoves-Regular, TT Hoves" letter-spacing="0.002em"><tspan x="0" y="8">Your order for INV47348 has been shipped. Mahesh </tspan><tspan x="0" y="18">is out for delivery. </tspan></text>
            <g id="Group_377959" data-name="Group 377959" transform="translate(0 5)">
              <text id="_路_02:25_pm" data-name="  路  02:25 pm" transform="translate(1123.001 1360)" fill="#758195" font-size="5" font-family="TTHoves-Bold, TT Hoves" font-weight="700" letter-spacing="0.002em"><tspan x="0" y="0" xml:space="preserve">  路</tspan><tspan y="0" xml:space="preserve" font-family="TTHoves-Medium, TT Hoves" font-weight="500">  02:25 pm</tspan></text>
              <text id="Order_Notification" data-name="Order Notification" transform="translate(1058 1360)" fill="#091e42" font-size="8" font-family="TTHoves-Medium, TT Hoves" font-weight="500" letter-spacing="0.002em"><tspan x="0" y="0">Order Notification</tspan></text>
            </g>
          </g>
          <path id="icons8-receipt_dollar" d="M12.365,5a.71.71,0,0,0-.273.054L9.941,5.91,8.029,5.062A.729.729,0,0,0,7,5.73V20.851a2.687,2.687,0,0,0,2.683,2.683H19.926c.073,0,.146,0,.219-.01a3.181,3.181,0,0,1-.316-.693,1.626,1.626,0,0,1-.059-.761H9.683a1.22,1.22,0,0,1-1.219-1.219V6.857l1.166.516a.725.725,0,0,0,.571.01l2.165-.864,2.165.864a.709.709,0,0,0,.547,0l2.165-.864,2.165.864a.725.725,0,0,0,.571-.01l1.166-.516V15.8a2.654,2.654,0,0,1,.278-.171,1.7,1.7,0,0,1,1.185-1.287V5.73a.729.729,0,0,0-1.029-.668l-1.912.848-2.151-.858a.709.709,0,0,0-.547,0L14.8,5.916l-2.165-.864A.71.71,0,0,0,12.365,5Zm-1.707,5.854a.732.732,0,1,0,0,1.463H18.95a.732.732,0,1,0,0-1.463Zm0,4.39a.732.732,0,1,0,0,1.463h4.39a.732.732,0,1,0,0-1.463Zm7.317,0a.732.732,0,1,0,0,1.463h.976a.732.732,0,1,0,0-1.463Zm5.122,0a.732.732,0,0,0-.732.732v.321a2.32,2.32,0,0,0,.617,4.558H23.7a.861.861,0,0,1,.008,1.721l-.9.009a.686.686,0,0,1-.656-.48.732.732,0,0,0-1.4.439,2.136,2.136,0,0,0,1.609,1.452v.272a.732.732,0,0,0,1.463,0v-.241a2.32,2.32,0,0,0-.131-4.637h-.716a.862.862,0,0,1-.012-1.723l.4-.007a.683.683,0,0,1,.657.485.732.732,0,1,0,1.4-.428,2.131,2.131,0,0,0-1.6-1.465v-.276A.732.732,0,0,0,23.1,15.242ZM10.658,18.168a.732.732,0,1,0,0,1.463h4.39a.732.732,0,1,0,0-1.463Zm7.317,0a.732.732,0,1,0,0,1.463h.976a.732.732,0,1,0,0-1.463Z" transform="translate(1028.5 1354.003)" fill="#f66641"/>
        </g>
      </g>
      <g id="Group_377962" data-name="Group 377962" transform="translate(-190.5 -108)">
        <g transform="matrix(1, 0, 0, 1, 935.5, 1276)" filter="url(#Rectangle_116715)">
          <rect id="Rectangle_116715-3" data-name="Rectangle 116715" width="321" height="119" rx="8" transform="translate(84 105)" fill="#fff" stroke="rgba(255,255,255,0.5)" stroke-width="0.5"/>
        </g>
        <g id="Group_377953-2" data-name="Group 377953" transform="translate(0 47)">
          <g id="Group_377955-2" data-name="Group 377955" transform="translate(17.5)">
            <g id="Group_377967" data-name="Group 377967" transform="translate(28 22)">
              <g id="Group_377965-2" data-name="Group 377965" transform="translate(800 1194)">
                <rect id="Rectangle_113342-3" data-name="Rectangle 113342" width="83" height="23" rx="11.5" transform="translate(311 202)" fill="none" stroke="#257dff" stroke-width="1"/>
                <text id="Exercires-3" data-name="Exercires" transform="translate(323 217)" fill="#257dff" font-size="10" font-family="TTHoves-DemiBold, TT Hoves" font-weight="300"><tspan x="0" y="0">View Invoice</tspan></text>
              </g>
              <g id="Group_377966-2" data-name="Group 377966" transform="translate(713 1194)">
                <rect id="Rectangle_113342-4" data-name="Rectangle 113342" width="77" height="23" rx="11.5" transform="translate(317 202)" fill="#257dff"/>
                <text id="Exercires-4" data-name="Exercires" transform="translate(329 217)" fill="#fff" font-size="10" font-family="TTHoves-DemiBold, TT Hoves" font-weight="300"><tspan x="0" y="0">Pay Invoice</tspan></text>
              </g>
            </g>
            <text id="_Payment_of_Rs._7549_-_for_invoice_INV5834_is_overdue_now._Click_here_to_make_payment._" data-name="Payment of Rs. 7549/- for Ь invoice INV5834 is overdue now. Click here to make payment. " transform="translate(1058 1362)" fill="#8590a2" font-size="12" font-family="AppleColorEmoji, Apple Color Emoji" letter-spacing="0.002em"><tspan x="0" y="15"></tspan><tspan y="15" font-family="TTHoves-Regular, TT Hoves">Payment of Rs. 7549/- for </tspan><tspan y="15">Ь</tspan><tspan y="15" xml:space="preserve" font-family="TTHoves-Regular, TT Hoves"> invoice </tspan><tspan x="0" y="30" font-family="TTHoves-Regular, TT Hoves">INV5834 is overdue now. Click here to make </tspan><tspan x="0" y="45" font-family="TTHoves-Regular, TT Hoves">payment. </tspan></text>
            <g id="Group_377959-2" data-name="Group 377959" transform="translate(0 -3)">
              <text id="_路_02:25_pm-2" data-name="  路  02:25 pm" transform="translate(1163 1360)" fill="#758195" font-size="8" font-family="TTHoves-Bold, TT Hoves" font-weight="700" letter-spacing="0.002em"><tspan x="0" y="0" xml:space="preserve">  路</tspan><tspan y="0" xml:space="preserve" font-family="TTHoves-Medium, TT Hoves" font-weight="500">  02:25 pm</tspan></text>
              <text id="Invoice_Notification" data-name="Invoice Notification" transform="translate(1058 1360)" fill="#091e42" font-size="12" font-family="TTHoves-Medium, TT Hoves" font-weight="500" letter-spacing="0.002em"><tspan x="0" y="0">Invoice Notification</tspan></text>
            </g>
          </g>
          <path id="icons8-bill" d="M9.146,5A1.125,1.125,0,0,0,8,6.125v23.25A4.142,4.142,0,0,0,12.125,33.5h15.75A4.142,4.142,0,0,0,32,29.375V6.125A1.125,1.125,0,0,0,30.418,5.1L27.477,6.4,24.167,5.08a1.125,1.125,0,0,0-.835,0L20,6.413,16.667,5.08a1.125,1.125,0,0,0-.835,0L12.523,6.4,9.582,5.1A1.125,1.125,0,0,0,9.146,5Zm7.1,2.336,3.333,1.333a1.125,1.125,0,0,0,.835,0L23.75,7.336l3.333,1.333a1.125,1.125,0,0,0,.875-.016l1.793-.8V29.375a1.858,1.858,0,0,1-1.875,1.875H12.125a1.858,1.858,0,0,1-1.875-1.875V7.856l1.793.8a1.125,1.125,0,0,0,.875.016ZM13.625,14a1.125,1.125,0,1,0,0,2.25h12.75a1.125,1.125,0,1,0,0-2.25Zm0,6.75a1.125,1.125,0,1,0,0,2.25h6.75a1.125,1.125,0,1,0,0-2.25Zm11.25,0a1.125,1.125,0,1,0,0,2.25h1.5a1.125,1.125,0,1,0,0-2.25Zm-11.25,4.5a1.125,1.125,0,1,0,0,2.25h6.75a1.125,1.125,0,1,0,0-2.25Zm11.25,0a1.125,1.125,0,1,0,0,2.25h1.5a1.125,1.125,0,1,0,0-2.25Z" transform="translate(1027.5 1342.5)" fill="#3ad394" stroke="#3ad394" stroke-width="0.2"/>
        </g>
      </g>
      <g id="Group_378217" data-name="Group 378217">
        <path id="Rectangle_116715-4" data-name="Rectangle 116715" d="M0,0H277.037a0,0,0,0,1,0,0V84a8,8,0,0,1-8,8H8a8,8,0,0,1-8-8V0A0,0,0,0,1,0,0Z" transform="translate(853 1169)" fill="#fff" stroke="rgba(255,255,255,0.5)" stroke-width="0.5"/>
        <g id="Group_377953-3" data-name="Group 377953" transform="translate(-166.5 -185)">
          <g id="Group_377955-3" data-name="Group 377955" transform="translate(13.536)">
            <g id="Group_377968-2" data-name="Group 377968" transform="translate(27.736 20)">
              <g id="Group_377965-3" data-name="Group 377965" transform="translate(768 1194)">
                <rect id="Rectangle_113342-5" data-name="Rectangle 113342" width="57" height="15" rx="7.5" transform="translate(316 207)" fill="none" stroke="#257dff" stroke-width="0.7"/>
                <text id="Exercires-5" data-name="Exercires" transform="translate(324 217)" fill="#257dff" font-size="7" font-family="TTHoves-DemiBold, TT Hoves" font-weight="300"><tspan x="0" y="0">View Ledger</tspan></text>
              </g>
              <g id="Group_377966-3" data-name="Group 377966" transform="translate(710 1194)">
                <rect id="Rectangle_113342-6" data-name="Rectangle 113342" width="49" height="15" rx="7.5" transform="translate(321 207)" fill="#257dff"/>
                <text id="Exercires-6" data-name="Exercires" transform="translate(329 217)" fill="#fff" font-size="7" font-family="TTHoves-DemiBold, TT Hoves" font-weight="300"><tspan x="0" y="0">Use Coins</tspan></text>
              </g>
            </g>
            <text id="We_have_successfully_received_your_payment_of_Rs._7_549._Thank_you_for_timely_payment._You_have_earned_75_ZoCoins_._" data-name="We have successfully received your payment of Rs. 7,549. Thank you for timely payment. 

You have earned 75 ZoCoins . " transform="translate(1058 1370)" fill="#758195" font-size="9" font-family="TTHoves-Regular, TT Hoves" letter-spacing="0.002em"><tspan x="0" y="8">We have successfully received your payment of Rs. </tspan><tspan x="0" y="19">7,549. Thank you </tspan><tspan y="19" font-family="AppleColorEmoji, Apple Color Emoji"></tspan><tspan y="19">for timely payment. </tspan><tspan x="0" y="30"></tspan><tspan x="0" y="41">You have earned 75 ZoCoins . </tspan></text>
            <g id="Group_377959-3" data-name="Group 377959" transform="translate(0 5)">
              <text id="_路_02:25_pm-3" data-name="  路  02:25 pm" transform="translate(1134.001 1360)" fill="#758195" font-size="5" font-family="TTHoves-Bold, TT Hoves" font-weight="700" letter-spacing="0.002em"><tspan x="0" y="0" xml:space="preserve">  路</tspan><tspan y="0" xml:space="preserve" font-family="TTHoves-Medium, TT Hoves" font-weight="500">  02:25 pm</tspan></text>
              <text id="Payment_Notification" data-name="Payment Notification" transform="translate(1058 1360)" fill="#091e42" font-size="8" font-family="TTHoves-Medium, TT Hoves" font-weight="500" letter-spacing="0.002em"><tspan x="0" y="0">Payment Notification</tspan></text>
            </g>
          </g>
          <g id="star_coin" data-name="star coin" transform="translate(1029.5 1353)">
            <path id="Path_358519" data-name="Path 358519" d="M6,23v1.113a9.752,9.752,0,0,0,10.018,9.462,9.752,9.752,0,0,0,10.018-9.462V23Z" transform="translate(0 -7.538)" fill="url(#linear-gradient)"/>
            <ellipse id="Ellipse_17636" data-name="Ellipse 17636" cx="9.462" cy="8.936" rx="9.462" ry="8.936" transform="translate(6.557 6.525)" fill="url(#linear-gradient-2)"/>
            <path id="Path_358520" data-name="Path 358520" d="M7,16.88a9.21,9.21,0,0,1,9.462-8.936,9.21,9.21,0,0,1,9.462,8.936" transform="translate(-0.443 -0.862)" fill="none" stroke="#707070" stroke-width="1"/>
            <path id="Path_358521" data-name="Path 358521" d="M16.018,7.113a8.65,8.65,0,0,1,8.9,8.348,8.65,8.65,0,0,1-8.9,8.348,8.65,8.65,0,0,1-8.9-8.348,8.65,8.65,0,0,1,8.9-8.348m0-1.113A9.752,9.752,0,0,0,6,15.462a9.752,9.752,0,0,0,10.018,9.462,9.752,9.752,0,0,0,10.018-9.462A9.752,9.752,0,0,0,16.018,6Z" fill="url(#linear-gradient-3)"/>
            <path id="Path_358522" data-name="Path 358522" d="M19.979,13.745l1.134,3.344h3.618a.39.39,0,0,1,.223.709l-2.912,2.031,1.121,3.311a.39.39,0,0,1-.592.445l-2.96-2.063-2.958,2.063a.39.39,0,0,1-.592-.445l1.121-3.311L14.267,17.8a.39.39,0,0,1,.223-.709h3.618l1.132-3.344a.39.39,0,0,1,.74,0Z" transform="translate(-3.592 -3.316)" fill="url(#linear-gradient-4)"/>
          </g>
        </g>
      </g>
    </g>
    <rect id="Rectangle_116716" data-name="Rectangle 116716" width="488" height="65" rx="12" transform="translate(750 2803)" opacity="0.6" fill="url(#linear-gradient-5)"/>
    <rect id="Rectangle_116717" data-name="Rectangle 116717" width="488" height="72" rx="12" transform="translate(750 2563)" opacity="0.6" fill="url(#linear-gradient-6)"/>
  </g>
</svg>
