<svg xmlns="http://www.w3.org/2000/svg" width="20" height="17" viewBox="0 0 20 17">
  <path id="icons8-duration_finance" d="M5.381,7a.721.721,0,0,0-.714.729v.324a2.092,2.092,0,0,0-1.538,1.983A2.046,2.046,0,0,0,5.152,12.1h.586a.607.607,0,0,1,0,1.214H4.922a.614.614,0,0,1-.57-.326.708.708,0,0,0-.958-.325.736.736,0,0,0-.319.978,2.034,2.034,0,0,0,1.591,1.112v.262a.714.714,0,1,0,1.428,0v-.28a2.066,2.066,0,0,0-.357-4.092H5.151a.6.6,0,0,1-.595-.607A.641.641,0,0,1,5.2,9.429h.4a.543.543,0,0,1,.569.326.708.708,0,0,0,.958.325.737.737,0,0,0,.32-.978A1.927,1.927,0,0,0,6.095,8.026v-.3A.721.721,0,0,0,5.381,7ZM13,7a.721.721,0,0,0-.714.729v.324a2.092,2.092,0,0,0-1.538,1.983A2.046,2.046,0,0,0,12.767,12.1h.586a.607.607,0,0,1,0,1.214h-.814a.614.614,0,0,1-.57-.326.708.708,0,0,0-.958-.325.736.736,0,0,0-.319.978,2.034,2.034,0,0,0,1.591,1.112v.262a.714.714,0,1,0,1.428,0v-.28a2.066,2.066,0,0,0-.357-4.092h-.586a.6.6,0,0,1-.595-.607.641.641,0,0,1,.641-.607h.4a.543.543,0,0,1,.569.326.708.708,0,0,0,.958.325.737.737,0,0,0,.32-.978A1.927,1.927,0,0,0,13.71,8.026v-.3A.721.721,0,0,0,13,7Zm7.616,0a.721.721,0,0,0-.714.729v.324a2.092,2.092,0,0,0-1.538,1.983A2.046,2.046,0,0,0,20.383,12.1h.586a.607.607,0,0,1,0,1.214h-.814a.614.614,0,0,1-.57-.326.708.708,0,0,0-.958-.325.736.736,0,0,0-.319.978A2.034,2.034,0,0,0,19.9,14.752v.262a.714.714,0,1,0,1.428,0v-.28a2.066,2.066,0,0,0-.357-4.092h-.586a.6.6,0,0,1-.595-.607.641.641,0,0,1,.641-.607h.4a.543.543,0,0,1,.569.326.708.708,0,0,0,.958.325.737.737,0,0,0,.32-.978,1.927,1.927,0,0,0-1.353-1.076v-.3A.721.721,0,0,0,20.612,7Zm-.722,10.678a.714.714,0,0,0-.661.455.739.739,0,0,0,.164.8l1.161,1.185H15.512a2.636,2.636,0,0,0-.555-1.091,2.684,2.684,0,0,0-3.923,0,2.636,2.636,0,0,0-.555,1.091H8.134a2.636,2.636,0,0,0-.555-1.091,2.581,2.581,0,0,0-1.962-.852,2.581,2.581,0,0,0-1.962.852,2.85,2.85,0,0,0,0,3.639,2.581,2.581,0,0,0,1.962.852,2.581,2.581,0,0,0,1.962-.852,2.636,2.636,0,0,0,.555-1.091h2.345a2.636,2.636,0,0,0,.555,1.091,2.684,2.684,0,0,0,3.923,0,2.636,2.636,0,0,0,.555-1.091h5.041l-1.161,1.185a.739.739,0,0,0,0,1.03.7.7,0,0,0,1.01,0l2.318-2.366a.738.738,0,0,0,0-1.159L20.4,17.9a.707.707,0,0,0-.512-.221ZM5.618,19.629a1.076,1.076,0,0,1,.894.362,1.3,1.3,0,0,1,.29.779.743.743,0,0,0,0,.148,1.3,1.3,0,0,1-.289.777,1.076,1.076,0,0,1-.894.362,1.076,1.076,0,0,1-.894-.362,1.375,1.375,0,0,1,0-1.7A1.076,1.076,0,0,1,5.618,19.629Zm7.378,0a1.076,1.076,0,0,1,.894.362,1.3,1.3,0,0,1,.29.779.744.744,0,0,0,0,.148,1.3,1.3,0,0,1-.289.777,1.076,1.076,0,0,1-.894.362,1.076,1.076,0,0,1-.894-.362,1.3,1.3,0,0,1-.29-.779.743.743,0,0,0,0-.148,1.3,1.3,0,0,1,.289-.777A1.076,1.076,0,0,1,13,19.629Z" transform="translate(-3 -7)" fill="#132c45"/>
</svg>
