<svg xmlns="http://www.w3.org/2000/svg" width="20" height="20" viewBox="0 0 20 20">
  <path id="icons8-stocks_growth" d="M22.606,5.978a.839.839,0,0,0-.832.845v.4a2.632,2.632,0,0,0-1.972,2.5h0a2.679,2.679,0,0,0,2.685,2.646h.827a.98.98,0,1,1,.008,1.96l-1.037.009a.787.787,0,0,1-.757-.547.847.847,0,0,0-1.06-.545.831.831,0,0,0-.552,1.045,2.417,2.417,0,0,0,1.858,1.545v.42a.845.845,0,0,0,1.69,0v-.287a2.634,2.634,0,0,0-.15-5.265h-.827a.976.976,0,0,1-.995-.98h0a.975.975,0,0,1,.98-.98l.464-.007a.788.788,0,0,1,.759.552.847.847,0,0,0,1.055.553.831.831,0,0,0,.561-1.04,2.414,2.414,0,0,0-1.849-1.557V6.823a.827.827,0,0,0-.248-.6.852.852,0,0,0-.61-.243ZM15.843,9.869a.857.857,0,0,0-.091.008h-4.4a.833.833,0,1,0,0,1.666h2.467L6.248,19a.824.824,0,0,0,0,1.178.854.854,0,0,0,1.2,0l7.571-7.462v2.431a.845.845,0,0,0,1.69,0V10.815a.825.825,0,0,0-.208-.67A.851.851,0,0,0,15.843,9.869Zm0,8.324a.839.839,0,0,0-.832.845v6.107a.845.845,0,0,0,1.69,0V19.038a.827.827,0,0,0-.248-.6A.852.852,0,0,0,15.846,18.193Zm4.507,0a.839.839,0,0,0-.832.845v6.107a.845.845,0,0,0,1.69,0V19.038a.827.827,0,0,0-.248-.6A.852.852,0,0,0,20.353,18.193Zm4.507,0a.839.839,0,0,0-.832.845v6.107a.845.845,0,0,0,1.69,0V19.038a.827.827,0,0,0-.248-.6.852.852,0,0,0-.61-.243ZM11.339,20.969a.839.839,0,0,0-.832.845v3.331a.845.845,0,0,0,1.69,0V21.814a.827.827,0,0,0-.248-.6.852.852,0,0,0-.61-.243ZM6.832,23.745A.839.839,0,0,0,6,24.59v.555a.845.845,0,0,0,1.69,0V24.59a.827.827,0,0,0-.248-.6.852.852,0,0,0-.61-.243Z" transform="translate(-6 -5.979)" fill="#132c45"/>
</svg>
