<svg xmlns="http://www.w3.org/2000/svg" width="32" height="32" viewBox="0 0 32 32">
  <g id="Group_364558" data-name="Group 364558" transform="translate(-29 -64)">
    <rect id="Rectangle_115590" data-name="Rectangle 115590" width="32" height="32" transform="translate(29 64)" fill="#fff"/>
    <path id="icons8-menu" d="M3.145,5A1.222,1.222,0,0,0,2,6.286,1.222,1.222,0,0,0,3.145,7.572H23.763a1.222,1.222,0,0,0,1.146-1.286A1.222,1.222,0,0,0,23.763,5Zm0,7.714a1.294,1.294,0,0,0,0,2.572H23.763a1.294,1.294,0,0,0,0-2.572Zm0,7.714a1.294,1.294,0,0,0,0,2.572H23.763a1.294,1.294,0,0,0,0-2.572Z" transform="translate(32 66)" fill="#091e42"/>
  </g>
</svg>
