<svg xmlns="http://www.w3.org/2000/svg" width="20" height="18" viewBox="0 0 20 18">
  <path id="icons8-relaxed_working_with_a_laptop" d="M10.972,4A3.908,3.908,0,0,0,7.453,6.3a1.677,1.677,0,0,0-1.306.219l-3.9,2.511a.619.619,0,0,0-.087.063,2.854,2.854,0,0,0-1.151,1.89A2.928,2.928,0,0,0,1.5,13.157c.017.022.035.049.057.076l2.462,3.15V15.025a2.971,2.971,0,0,1,.078-.684L2.56,12.365a1.577,1.577,0,0,1,.365-2.182L6.833,7.668a.439.439,0,0,1,.23-.068l.025,0a3.842,3.842,0,0,0,.013.982L4.283,10.777a.675.675,0,0,0-.26.5.687.687,0,0,0,.213.531l.92.878a2.667,2.667,0,0,1,1.329-.562l-.795-.761L7.521,9.945a3.84,3.84,0,0,0,6.9,0l1.828,1.419-.795.757a2.745,2.745,0,0,1,1.333.567l.92-.878a.687.687,0,0,0,.213-.531.668.668,0,0,0-.26-.5L14.842,8.583a3.851,3.851,0,0,0,.014-.976.421.421,0,0,1,.25.06L19.033,10.2a1.53,1.53,0,0,1,.612,1.008,1.562,1.562,0,0,1-.278,1.179l-1.529,1.953a2.762,2.762,0,0,1,.082.688v1.354l2.462-3.15c.017-.022.034-.05.048-.068a2.927,2.927,0,0,0,.5-2.178,2.865,2.865,0,0,0-1.147-1.89c-.03-.023-.061-.045-.082-.059L15.792,6.52a1.667,1.667,0,0,0-1.3-.219A3.908,3.908,0,0,0,10.972,4Zm0,1.35a2.644,2.644,0,0,1,2.606,2.7,2.607,2.607,0,1,1-5.212,0A2.644,2.644,0,0,1,10.972,5.35ZM6.846,13a2,2,0,0,0-1.954,2.025v4.95a2.032,2.032,0,0,0,.133.675H4.24a.675.675,0,0,0,0,1.35H17.7a.675.675,0,0,0,0-1.35h-.785a2.032,2.032,0,0,0,.133-.675v-4.95A2,2,0,0,0,15.1,13Zm0,1.35H15.1a.654.654,0,0,1,.651.675v4.95a.654.654,0,0,1-.651.675H6.846a.654.654,0,0,1-.651-.675v-4.95A.654.654,0,0,1,6.846,14.35Zm4.126,2.25a.9.9,0,1,0,.869.9A.885.885,0,0,0,10.972,16.6Z" transform="translate(-0.97 -4)" fill="#132c45"/>
</svg>
