<svg xmlns="http://www.w3.org/2000/svg" width="24" height="23.999" viewBox="0 0 24 23.999">
  <g id="Group_379899" data-name="Group 379899" transform="translate(-33 -340.002)">
    <path id="Subtraction_15" data-name="Subtraction 15" d="M22268,9400c-4.49,0-7.443-.861-9.291-2.71s-2.709-4.8-2.709-9.295.861-7.441,2.711-9.287,4.8-2.707,9.289-2.707,7.443.86,9.291,2.707,2.709,4.8,2.709,9.287-.861,7.446-2.709,9.295S22272.49,9400,22268,9400Zm-2.506-16.457h0l-2.729.218a1.973,1.973,0,0,0-1.766,2.041v2.818a2.029,2.029,0,0,0,1.693,2.041l.313,3.147a1.279,1.279,0,0,0,1.242,1.186,1.292,1.292,0,0,0,1.246-1.331v-10.12Zm7.428-2.544c-.039,0-.078,0-.119.006a1.28,1.28,0,0,0-.291.051l-5.982,2.226v7.861l6.018,2.187a1.112,1.112,0,0,0,.391.078,1.21,1.21,0,0,0,.715-.263,1.368,1.368,0,0,0,.516-1.04v-3.35a1.521,1.521,0,0,0,0-2.712v-3.724a1.5,1.5,0,0,0-.549-1.079A1.092,1.092,0,0,0,22272.922,9381Z" transform="translate(-22223 -9036)" fill="#9ba4b3"/>
  </g>
</svg>
