<svg xmlns="http://www.w3.org/2000/svg" width="23.999" height="24.001" viewBox="0 0 23.999 24.001">
  <path id="Exclusion_2" data-name="Exclusion 2" d="M-1476,24c-4.491,0-7.443-.861-9.291-2.709S-1488,16.491-1488,12s.861-7.443,2.709-9.291S-1480.49,0-1476,0s7.443.861,9.291,2.709S-1464,7.509-1464,12s-.861,7.444-2.708,9.292S-1471.509,24-1476,24Zm.854-6.668a.32.32,0,0,0-.342.334V18a.99.99,0,0,0,1.024,1h4.44a.991.991,0,0,1-1.025-1v-.333a.32.32,0,0,0-.341-.334Zm1.365-5.333a.676.676,0,0,0-.683.667v4h3.073a1.013,1.013,0,0,1,1.024,1V18a.361.361,0,0,0,.342.333h.341a.675.675,0,0,0,.683-.666v-5a.676.676,0,0,0-.683-.667Zm-5.634-4.333a.658.658,0,0,0-.274.066l-2.766,1.8a1.109,1.109,0,0,0-.546.967v5.966a1.2,1.2,0,0,0,1.2,1.2h5.634a.991.991,0,0,1,1.025-1v-4a1.351,1.351,0,0,1,1.365-1.333h3.757V6.167a1.2,1.2,0,0,0-1.2-1.166h-2.049a1.2,1.2,0,0,0-1.2,1.166V9.5a.159.159,0,0,1-.17.167h-1.025a.159.159,0,0,1-.17-.167V8.167a.519.519,0,0,0-.512-.5.658.658,0,0,0-.274.066l-2.288,1.5V8.167A.519.519,0,0,0-1479.415,7.667Zm3.244,8h-.682a.32.32,0,0,1-.342-.333v-.667a.32.32,0,0,1,.342-.333h.682a.32.32,0,0,1,.342.333v.667A.32.32,0,0,1-1476.171,15.666Zm-3.415,0h-.683a.319.319,0,0,1-.341-.333v-.667a.319.319,0,0,1,.341-.333h.683a.32.32,0,0,1,.342.333v.667A.32.32,0,0,1-1479.586,15.666Zm3.415-2.667h-.682a.32.32,0,0,1-.342-.333V12a.32.32,0,0,1,.342-.333h.682a.32.32,0,0,1,.342.333v.667A.32.32,0,0,1-1476.171,13Zm-3.415,0h-.683a.319.319,0,0,1-.341-.333V12a.319.319,0,0,1,.341-.333h.683a.32.32,0,0,1,.342.333v.667A.32.32,0,0,1-1479.586,13Z" transform="translate(1488)" fill="#9ba4b3"/>
</svg>
