<svg xmlns="http://www.w3.org/2000/svg" xmlns:xlink="http://www.w3.org/1999/xlink" width="24" height="24.001" viewBox="0 0 24 24.001">
  <defs>
    <linearGradient id="linear-gradient" y1="0.847" x2="1.214" y2="0.074" gradientUnits="objectBoundingBox">
      <stop offset="0" stop-color="#cc3334"/>
      <stop offset="0.522" stop-color="#8546db"/>
      <stop offset="1" stop-color="#2b9ad9"/>
    </linearGradient>
  </defs>
  <g id="Group_364682" data-name="Group 364682" transform="translate(-28 -112)">
    <path id="Path_252748" data-name="Path 252748" d="M12,0c8.777,0,12,3.224,12,12S20.777,24,12,24,0,20.777,0,12,3.224,0,12,0Z" transform="translate(28 112)" fill="url(#linear-gradient)"/>
    <path id="icons8-reseller" d="M11.988,3A2.277,2.277,0,0,0,9.779,5.34a2.277,2.277,0,0,0,2.209,2.34A2.277,2.277,0,0,0,14.2,5.34,2.277,2.277,0,0,0,11.988,3ZM9.963,8.46A1.33,1.33,0,0,0,8.675,9.825V10.8c0,1.312,1.455,2.34,3.314,2.34S15.3,12.112,15.3,10.8V9.825A1.33,1.33,0,0,0,14.013,8.46ZM8.74,12.894a.532.532,0,0,0-.295.1L6.937,14.067a1.235,1.235,0,0,0-.66-.193,1.367,1.367,0,0,0,0,2.73,1.26,1.26,0,0,0,.975-.473,1.422,1.422,0,0,0,.3-1.091L9.059,13.97a.6.6,0,0,0,.226-.666.556.556,0,0,0-.546-.409Zm6.48,0a.557.557,0,0,0-.531.418.6.6,0,0,0,.228.658l1.509,1.069a1.422,1.422,0,0,0,.3,1.091,1.26,1.26,0,0,0,.975.474,1.367,1.367,0,0,0,0-2.73,1.235,1.235,0,0,0-.659.194L15.531,13a.531.531,0,0,0-.311-.1Zm-3.24,1.018a.571.571,0,0,0-.544.593v2.231a1.39,1.39,0,0,0-.7,1.532,1.273,1.273,0,0,0,2.511,0,1.39,1.39,0,0,0-.7-1.533v-2.23a.6.6,0,0,0-.162-.422A.537.537,0,0,0,11.98,13.912Z" transform="translate(28.012 113)" fill="#fff"/>
  </g>
</svg>
