<svg xmlns="http://www.w3.org/2000/svg" width="31.998" height="31.999" viewBox="0 0 31.998 31.999">
  <g id="Group_139651" data-name="Group 139651" transform="translate(0 0)">
    <path id="Exclusion_6" data-name="Exclusion 6" d="M-1496,8c-5.988,0-9.924-1.148-12.388-3.612S-1512-2.013-1512-8s1.147-9.924,3.611-12.388S-1501.989-24-1496-24s9.924,1.148,12.388,3.612S-1480-13.988-1480-8s-1.147,9.924-3.611,12.388S-1490.014,8-1496,8Zm-6.92-8.6a.107.107,0,0,0-.107.107v.263a.107.107,0,0,0,.107.106h9.937a.107.107,0,0,0,.107-.106V-.489a.107.107,0,0,0-.107-.107Zm1.7-12.088a.107.107,0,0,0-.107.107v.261a.107.107,0,0,0,.107.107h6.763L-1503-3.67a.1.1,0,0,0-.032.074v.326a.107.107,0,0,0,.107.107h12.367a.107.107,0,0,0,.107-.107v-.263a.107.107,0,0,0-.107-.107h-6.739l8.513-8.536a.108.108,0,0,0,.029-.051V-12.6a.108.108,0,0,0-.1-.083Zm2.431-3.046a.107.107,0,0,0-.107.107v.262a.107.107,0,0,0,.107.107h9.937a.108.108,0,0,0,.106-.094v-.289a.108.108,0,0,0-.106-.094Zm.811,12.088h-4.354l8.542-8.564h4.378l-8.565,8.563Z" transform="translate(1512 24)" fill="#9ba4b3"/>
  </g>
</svg>
