<svg xmlns="http://www.w3.org/2000/svg" width="24" height="23.999" viewBox="0 0 24 23.999">
  <g id="Group_379901" data-name="Group 379901" transform="translate(-33 -339.999)">
    <path id="Subtraction_17" data-name="Subtraction 17" d="M22268,9220c-4.492,0-7.445-.86-9.291-2.707s-2.709-4.8-2.709-9.293.861-7.441,2.711-9.289,4.8-2.71,9.289-2.71,7.443.861,9.291,2.71,2.709,4.8,2.709,9.289-.861,7.445-2.709,9.293S22272.492,9220,22268,9220Zm-1.924-9.774a1.4,1.4,0,0,0-1.4,1.4v.872c0,1.276,1.461,2.276,3.326,2.276s3.326-1,3.326-2.276v-.872a1.4,1.4,0,0,0-1.4-1.4Zm-3.852-3.321a1.226,1.226,0,0,0-1.225,1.225V9209a1.81,1.81,0,0,0,.879,1.47,4,4,0,0,0,2.168.627,2.1,2.1,0,0,1,2.029-1.571h.012a2.976,2.976,0,0,1-1.062-2.275,2.42,2.42,0,0,1,.021-.347Zm8.729,0h0a2.42,2.42,0,0,1,.021.347,2.976,2.976,0,0,1-1.062,2.275h.012a2.1,2.1,0,0,1,2.029,1.571,4.005,4.005,0,0,0,2.168-.627,1.81,1.81,0,0,0,.879-1.47v-.872a1.226,1.226,0,0,0-1.225-1.225Zm-2.953-1.929a2.271,2.271,0,0,0-2.264,2.046l0,.006c-.006.076-.01.148-.01.224a2.268,2.268,0,0,0,2.041,2.265c.059,0,.146.011.234.011a2.275,2.275,0,0,0,0-4.551Zm3.848-2.976a2.1,2.1,0,1,0,2.1,2.1A2.1,2.1,0,0,0,22271.848,9202Zm-7.7,0a2.1,2.1,0,1,0,2.1,2.1A2.1,2.1,0,0,0,22264.152,9202Zm3.848,11.379c-1.156,0-1.924-.528-1.924-.878v-.872h3.848v.872C22269.924,9212.849,22269.156,9213.377,22268,9213.377Zm0-5.25a.877.877,0,0,1-.873-.878.651.651,0,0,1,.02-.174.872.872,0,0,1,1.727.174A.877.877,0,0,1,22268,9208.127Z" transform="translate(-22223 -8856)" fill="#9ba4b3"/>
  </g>
</svg>
