<svg xmlns="http://www.w3.org/2000/svg" width="23.999" height="24.001" viewBox="0 0 23.999 24.001">
  <path id="Exclusion_1" data-name="Exclusion 1" d="M-1476,24c-4.491,0-7.443-.861-9.291-2.709S-1488,16.491-1488,12s.861-7.443,2.709-9.291S-1480.49,0-1476,0s7.443.861,9.291,2.709S-1464,7.509-1464,12s-.861,7.444-2.708,9.292S-1471.509,24-1476,24Zm-1.882-7.991h0l.275,1.211a1.009,1.009,0,0,0,1,.778h1.219a1.01,1.01,0,0,0,1-.778l.275-1.211ZM-1476,6.637a4.035,4.035,0,0,0-4.083,3.973,3.948,3.948,0,0,0,1.275,2.886,2.061,2.061,0,0,1,.6,1.066l.136.595h4.153l.136-.595a2.052,2.052,0,0,1,.6-1.066,3.948,3.948,0,0,0,1.275-2.886A4.035,4.035,0,0,0-1476,6.637Zm4.6,6.467a.437.437,0,0,0-.406.266.417.417,0,0,0,.1.466l.412.4a.441.441,0,0,0,.31.125.441.441,0,0,0,.31-.125.418.418,0,0,0,.128-.3.418.418,0,0,0-.128-.3l-.413-.4A.443.443,0,0,0-1471.4,13.1Zm-9.2,0h-.011a.444.444,0,0,0-.3.129l-.412.4a.418.418,0,0,0-.128.3.418.418,0,0,0,.128.3.441.441,0,0,0,.31.125.441.441,0,0,0,.31-.125l.412-.4a.417.417,0,0,0,.1-.472.437.437,0,0,0-.4-.26Zm10.289-3.347a.433.433,0,0,0-.437.427.433.433,0,0,0,.437.427h.875a.433.433,0,0,0,.438-.427.433.433,0,0,0-.438-.427Zm-12.25,0a.433.433,0,0,0-.437.427.433.433,0,0,0,.437.427h.875a.433.433,0,0,0,.438-.427.433.433,0,0,0-.438-.427ZM-1470.98,6h-.011a.443.443,0,0,0-.3.129l-.412.4a.418.418,0,0,0-.128.3.418.418,0,0,0,.128.3.441.441,0,0,0,.309.125.439.439,0,0,0,.309-.125l.413-.4a.417.417,0,0,0,.1-.472.438.438,0,0,0-.4-.26Zm-10.042,0a.438.438,0,0,0-.406.266.417.417,0,0,0,.1.466l.412.4a.441.441,0,0,0,.31.125.441.441,0,0,0,.31-.125.418.418,0,0,0,.128-.3.418.418,0,0,0-.128-.3l-.412-.4A.45.45,0,0,0-1481.022,6Z" transform="translate(1488)" fill="#9ba4b3"/>
</svg>
