<svg xmlns="http://www.w3.org/2000/svg" width="23.999" height="24.001" viewBox="0 0 23.999 24.001">
  <path id="Exclusion_4" data-name="Exclusion 4" d="M-1476,24c-4.491,0-7.443-.861-9.291-2.709S-1488,16.491-1488,12s.861-7.443,2.709-9.291S-1480.49,0-1476,0s7.443.861,9.291,2.709S-1464,7.509-1464,12s-.861,7.444-2.708,9.292S-1471.509,24-1476,24Zm.583-11.418V19h4.278A2.141,2.141,0,0,0-1469,16.861V12.583Zm-7.583,0v4.279A2.141,2.141,0,0,0-1480.861,19h4.278V12.583ZM-1475.417,5v6.416H-1469V7.139A2.141,2.141,0,0,0-1471.139,5Zm-5.444,0A2.141,2.141,0,0,0-1483,7.139v4.278h6.417V5Z" transform="translate(1488)" fill="#9ba4b3"/>
</svg>
