<svg xmlns="http://www.w3.org/2000/svg" width="24" height="23.999" viewBox="0 0 24 23.999">
  <g id="Group_379900" data-name="Group 379900" transform="translate(-33 -339.999)">
    <path id="Subtraction_16" data-name="Subtraction 16" d="M22268,9340c-4.49,0-7.443-.861-9.291-2.71s-2.709-4.8-2.709-9.29.861-7.444,2.711-9.292,4.8-2.707,9.289-2.707,7.445.86,9.291,2.707,2.709,4.8,2.709,9.292-.861,7.442-2.709,9.29S22272.49,9340,22268,9340Zm-6.52-17.188a.475.475,0,0,0-.363.168.5.5,0,0,0-.111.4v6.1a.492.492,0,0,0,.111.4.461.461,0,0,0,.363.173h.42a.775.775,0,0,1,.57.246c.732.779,2.355,2.494,2.846,2.992a2.189,2.189,0,0,0,1.555.7,1.643,1.643,0,0,0,1.531-1.034,1.77,1.77,0,0,0,1.213-.615h.039c.205,0,.744.013,1.281.013.4,0,.7,0,.934-.013a2.442,2.442,0,0,0,1.611-.66,1.162,1.162,0,0,1,.766-.318h.273a.492.492,0,0,0,0-.984h-.273a2.081,2.081,0,0,0-1.393.56,1.412,1.412,0,0,1-1.012.413c-.264.012-.619.012-.963.012a2.125,2.125,0,0,0,.594-.917,1.565,1.565,0,0,0,1.191-.95,1.906,1.906,0,0,0-.482-1.924c-.311-.334-1.477-1.674-1.975-2.245l-.205-.237a.48.48,0,0,0-.361-.164.438.438,0,0,0-.148.024,12.256,12.256,0,0,1-3.158.626,2.071,2.071,0,0,1-.52-.062.353.353,0,0,1-.281-.341.366.366,0,0,1,.2-.392l1.492-.644a.292.292,0,0,1,.057-.027l1.633-.979a1.25,1.25,0,0,1,1.09-.057l2.152.89a1.986,1.986,0,0,0,.766.15h1.6a.492.492,0,0,0,0-.983h-1.6a1.078,1.078,0,0,1-.414-.084l-2.146-.89a2.167,2.167,0,0,0-.855-.169l-.09,0a2.254,2.254,0,0,0-.934.257s-.008,0-.012.006l-.016,0-.9.543h-6.072Z" transform="translate(-22223 -8976)" fill="#9ba4b3"/>
  </g>
</svg>
