<svg xmlns="http://www.w3.org/2000/svg" width="24" height="24" viewBox="0 0 24 24">
  <path id="Exclusion_4" data-name="Exclusion 4" d="M12,24c-4.491,0-7.443-.861-9.292-2.709S0,16.49,0,12,.861,4.556,2.709,2.708,7.51,0,12,0s7.443.861,9.291,2.709S24,7.509,24,12s-.861,7.443-2.708,9.292S16.491,24,12,24ZM12,5a7,7,0,1,0,7,7A7.008,7.008,0,0,0,12,5Zm.875,11.2a.522.522,0,0,1-.371-.154l-3.15-3.15a.525.525,0,0,1,.371-.9h1.75a1.23,1.23,0,0,0,1.1-.7H9.725a.525.525,0,1,1,0-1.049h2.852a1.214,1.214,0,0,0-1.1-.7H9.725a.525.525,0,0,1,0-1.05h4.55a.525.525,0,0,1,0,1.05h-.886a2.249,2.249,0,0,1,.3.7h.589a.525.525,0,1,1,0,1.049h-.589a2.268,2.268,0,0,1-2.211,1.75h-.482L13.247,15.3a.525.525,0,0,1-.372.9Z" fill="#9ba4b3"/>
</svg>
