<svg xmlns="http://www.w3.org/2000/svg" width="23.999" height="24.001" viewBox="0 0 23.999 24.001">
  <path id="Exclusion_1" data-name="Exclusion 1" d="M-1476,24c-4.491,0-7.443-.861-9.291-2.709S-1488,16.491-1488,12s.861-7.443,2.709-9.291S-1480.49,0-1476,0s7.443.861,9.291,2.709S-1464,7.509-1464,12s-.861,7.444-2.708,9.292S-1471.509,24-1476,24Zm-5.4-12.33v4.638a1.673,1.673,0,0,0,1.65,1.692h7.5a1.674,1.674,0,0,0,1.651-1.692V11.688a3.261,3.261,0,0,1-2.1.774,3.224,3.224,0,0,1-1.615-.432,3.52,3.52,0,0,1-1.686.432,3.518,3.518,0,0,1-1.685-.432,3.227,3.227,0,0,1-1.615.432,3.243,3.243,0,0,1-2.1-.791Zm7.1-.366h0a2.626,2.626,0,0,0,1.6.541,2.653,2.653,0,0,0,1.811-.72,2.786,2.786,0,0,0,.874-1.774.477.477,0,0,0-.016-.293L-1470.6,7.6V7.077A1.065,1.065,0,0,0-1471.65,6h-8.7a1.065,1.065,0,0,0-1.05,1.076V7.6l-.568,1.456a.461.461,0,0,0-.018.276,2.747,2.747,0,0,0,2.686,2.511,2.631,2.631,0,0,0,1.606-.542,2.921,2.921,0,0,0,1.695.542,2.923,2.923,0,0,0,1.7-.541Zm1.3,5.773h-2.551V13.386h2.251a.3.3,0,0,1,.3.307v3.384Zm-3.451,0H-1479V13.693a.3.3,0,0,1,.3-.307h2.25v3.691Zm-1.5-8.923a.457.457,0,0,1-.45-.462.457.457,0,0,1,.45-.462.456.456,0,0,1,.45.462A.456.456,0,0,1-1477.95,8.154Zm-1.5,0a.456.456,0,0,1-.45-.462.456.456,0,0,1,.45-.462.457.457,0,0,1,.45.462A.457.457,0,0,1-1479.451,8.154Z" transform="translate(1488)" fill="#9ba4b3"/>
</svg>
